<svg width="25" height="25" viewBox="0 0 25 25" fill="none" xmlns="http://www.w3.org/2000/svg">
<path d="M17.3997 8.62186C18.4769 8.62186 19.3501 7.74861 19.3501 6.67141C19.3501 5.5942 18.4769 4.72095 17.3997 4.72095C16.3225 4.72095 15.4492 5.5942 15.4492 6.67141C15.4492 7.74861 16.3225 8.62186 17.3997 8.62186Z" stroke="#8DA3AF" stroke-width="1.46284" stroke-linecap="round" stroke-linejoin="round"/>
<path d="M9.59915 11.5459C8.762 11.5314 7.93522 11.7327 7.19845 12.1305C6.46168 12.5282 5.83974 13.109 5.39252 13.8168C4.94531 14.5246 4.68789 15.3357 4.64506 16.1719C4.60223 17.0081 4.77543 17.8412 5.14798 18.591C5.52054 19.3408 6.07989 19.9821 6.77216 20.453C7.46444 20.924 8.26632 21.2087 9.10057 21.2798C9.93481 21.351 10.7733 21.2061 11.5353 20.8591C12.2973 20.5122 12.9572 19.9749 13.4513 19.299" stroke="#8DA3AF" stroke-width="1.46284" stroke-linecap="round" stroke-linejoin="round"/>
<path d="M19.3499 20.3245L15.4489 15.4483H11.548L14.4737 10.5722L10.5728 7.64648L6.67188 8.62171" stroke="#8DA3AF" stroke-width="1.46284" stroke-linecap="round" stroke-linejoin="round"/>
</svg>
