<svg width="28" height="28" viewBox="0 0 28 28" fill="none" xmlns="http://www.w3.org/2000/svg">
<g clip-path="url(#clip0_1438_1603)">
<path d="M13.9999 2.33325L14.3779 2.33442L14.7489 2.33909L15.4676 2.35892L15.8164 2.37409L16.4919 2.41375L17.1371 2.46742C22.7196 3.00875 24.9911 5.28025 25.5324 10.8628L25.5861 11.5079L25.6258 12.1834C25.6316 12.2978 25.6374 12.4144 25.6409 12.5323L25.6608 13.2509L25.6666 13.9999L25.6608 14.7489L25.6409 15.4676L25.6258 15.8164L25.5861 16.4919L25.5324 17.1371C24.9911 22.7196 22.7196 24.9911 17.1371 25.5324L16.4919 25.5861L15.8164 25.6258C15.7021 25.6316 15.5854 25.6374 15.4676 25.6409L14.7489 25.6608L13.9999 25.6666L13.2509 25.6608L12.5323 25.6409L12.1834 25.6258L11.5079 25.5861L10.8628 25.5324C5.28025 24.9911 3.00875 22.7196 2.46742 17.1371L2.41375 16.4919L2.37409 15.8164C2.36841 15.7002 2.36335 15.5839 2.35892 15.4676L2.33909 14.7489C2.33559 14.5039 2.33325 14.2543 2.33325 13.9999L2.33442 13.6219L2.33909 13.2509L2.35892 12.5323L2.37409 12.1834L2.41375 11.5079L2.46742 10.8628C3.00875 5.28025 5.28025 3.00875 10.8628 2.46742L11.5079 2.41375L12.1834 2.37409C12.2978 2.36825 12.4144 2.36242 12.5323 2.35892L13.2509 2.33909C13.4959 2.33559 13.7456 2.33325 13.9999 2.33325ZM13.9999 9.33325C13.6905 9.33325 13.3938 9.45617 13.175 9.67496C12.9562 9.89375 12.8333 10.1905 12.8333 10.4999V12.8333H10.4999L10.3634 12.8414C10.0681 12.8765 9.79742 13.0231 9.60656 13.2511C9.4157 13.4791 9.31912 13.7714 9.33655 14.0683C9.35398 14.3651 9.4841 14.6441 9.70032 14.8483C9.91655 15.0524 10.2026 15.1663 10.4999 15.1666H12.8333V17.4999L12.8414 17.6364C12.8765 17.9317 13.0231 18.2024 13.2511 18.3933C13.4791 18.5841 13.7714 18.6807 14.0683 18.6633C14.3651 18.6459 14.6441 18.5157 14.8483 18.2995C15.0524 18.0833 15.1663 17.7973 15.1666 17.4999V15.1666H17.4999L17.6364 15.1584C17.9317 15.1233 18.2024 14.9768 18.3933 14.7487C18.5841 14.5207 18.6807 14.2284 18.6633 13.9315C18.6459 13.6347 18.5157 13.3557 18.2995 13.1516C18.0833 12.9474 17.7973 12.8336 17.4999 12.8333H15.1666V10.4999L15.1584 10.3634C15.125 10.0796 14.9886 9.81797 14.775 9.62809C14.5615 9.4382 14.2857 9.33329 13.9999 9.33325Z" fill="#006B9E"/>
</g>
<defs>
<clipPath id="clip0_1438_1603">
<rect width="28" height="28" fill="white"/>
</clipPath>
</defs>
</svg>
