<svg width="40" height="40" viewBox="0 0 40 40" fill="none" xmlns="http://www.w3.org/2000/svg">
<circle cx="20" cy="20" r="20" fill="#52D4BD" fill-opacity="0.08"/>
<path d="M9.33786 22.9186C9.09681 23.0317 8.99046 23.3164 9.09788 23.5597L10.1989 25.9233C10.253 26.041 10.3517 26.1326 10.4731 26.1778C10.5262 26.1971 10.5826 26.2071 10.6393 26.2071C10.7103 26.2077 10.7803 26.1925 10.8448 26.1633L19.1636 22.2777L18.4101 30.1559C18.3955 30.311 18.4553 30.4635 18.5713 30.5671C18.936 30.869 19.3905 31.0409 19.8634 31.0564C19.9938 31.0562 20.1235 31.0398 20.2499 31.0076C20.9252 30.8314 21.4488 30.2296 21.806 29.2019L25.0797 19.5082L31.5632 16.4839C33.4717 15.5934 34.4552 13.7878 33.7947 12.3785C33.4199 11.6418 32.702 11.1407 31.8814 11.0425C30.9696 10.9049 30.0378 11.0483 29.2096 11.4538L21.7276 14.9622L13.6831 11.8158C12.6701 11.4342 11.8677 11.444 11.305 11.8502C10.8329 12.2376 10.5642 12.8199 10.5757 13.4306C10.5806 13.5855 10.6586 13.7288 10.7861 13.8174L16.203 17.5411L13.1008 19.0091L7.89894 17.6877C7.68578 17.6353 7.46389 17.7314 7.35586 17.9227L6.0593 20.2567C5.99203 20.3803 5.98145 20.5271 6.03034 20.6592C6.07891 20.7915 6.1822 20.8961 6.31383 20.9467L10.1649 22.5372L9.33786 22.9186ZM11.5787 13.186C11.6075 12.9792 11.7122 12.7908 11.8724 12.6575C12.1515 12.4568 12.6604 12.4862 13.3405 12.7406L20.5044 15.5347L17.2355 17.0615L11.5787 13.186ZM7.17488 20.2519L8.02628 18.7399L13.0322 19.9827C13.14 20.0099 13.2539 19.9997 13.3553 19.9535L29.6257 12.3541C30.2725 12.035 31.001 11.9189 31.7151 12.0213C32.2159 12.0674 32.662 12.3564 32.9092 12.7944C33.3198 13.6753 32.5126 14.9622 31.1472 15.5983L25.5101 18.2409L25.8528 17.2277C25.9394 16.9671 25.7979 16.6854 25.5373 16.599C25.2763 16.5126 24.9948 16.654 24.9084 16.9147L20.8811 28.8983C20.6413 29.5787 20.3427 29.9849 20.0101 30.0727C19.804 30.1124 19.5907 30.072 19.413 29.9604L20.3918 19.6842C20.4174 19.414 20.2192 19.1742 19.9488 19.1486C19.6786 19.1227 19.4388 19.3211 19.413 19.5913L19.2615 21.162L10.8643 25.0767L10.1747 23.6086L11.5543 22.9629C11.7319 22.8846 11.8464 22.7089 11.8464 22.5151C11.8464 22.3211 11.7319 22.1455 11.5543 22.0673L7.17488 20.2519Z" fill="#52D4BD"/>
</svg>
