<svg width="164" height="49" viewBox="0 0 164 49" fill="none" xmlns="http://www.w3.org/2000/svg">
<g clip-path="url(#clip0_1245_2077)">
<path d="M162.827 42.6121C162.827 45.1676 160.755 47.2395 158.198 47.2395H6.55975C4.00064 47.2412 1.92348 45.1712 1.91992 42.6121V5.70886C1.92348 3.14977 3.99886 1.07617 6.55975 1.07617H158.193C160.752 1.07617 162.825 3.14977 162.825 5.70886V42.6121H162.827Z" fill="white"/>
<path d="M158.194 48.3151H6.55951C3.40642 48.3151 0.850864 45.7631 0.84375 42.6118V5.71039C0.849085 2.55732 3.40464 0.00177838 6.55951 0H158.192C161.346 0.00355677 163.901 2.55732 163.908 5.71039V42.6118C163.91 45.7578 161.342 48.3151 158.194 48.3151Z" fill="#A6A5A5"/>
<path d="M162.827 42.6121C162.827 45.1676 160.755 47.2395 158.198 47.2395H6.55975C4.00064 47.2412 1.92348 45.1712 1.91992 42.6121V5.70886C1.92348 3.14977 3.99886 1.07617 6.55975 1.07617H158.193C160.752 1.07617 162.825 3.14977 162.825 5.70886V42.6121H162.827Z" fill="#010101"/>
<path opacity="0.1" d="M158.196 0H76.9746L108.787 48.3151H158.194C161.347 48.3133 163.902 45.7596 163.91 42.6083V5.71039C163.904 2.55732 161.349 0.00355677 158.194 0H158.196Z" fill="white"/>
<path d="M38.4178 24.5917C38.384 20.7824 41.5371 18.9311 41.6812 18.844C39.8957 16.2404 37.1267 15.8847 36.1539 15.8563C33.8296 15.6109 31.5746 17.247 30.3901 17.247C29.2057 17.247 27.358 15.8794 25.3929 15.9203C22.864 15.9594 20.4969 17.423 19.1987 19.6976C16.5204 24.3338 18.5176 31.145 21.0838 34.8921C22.3678 36.7292 23.867 38.7761 25.8303 38.7049C27.751 38.6267 28.4677 37.4814 30.7867 37.4814C33.1057 37.4814 33.7566 38.705 35.7591 38.6587C37.8203 38.6267 39.1185 36.8145 40.3563 34.9632C41.8394 32.8612 42.4352 30.7876 42.4583 30.6827C42.4103 30.6667 38.4569 29.1568 38.416 24.5917H38.4178ZM34.6352 13.3914C35.6684 12.1003 36.3744 10.3433 36.1788 8.55957C34.6832 8.62537 32.8141 9.59281 31.7364 10.8572C30.7832 11.9705 29.9331 13.7951 30.1518 15.5113C31.8306 15.6358 33.5557 14.6648 34.6334 13.3932L34.6352 13.3914Z" fill="white"/>
<path d="M66.2381 37.0753H63.5545L62.0837 32.4568H56.9726L55.5713 37.0753H52.957L58.0219 21.349H61.1501L66.2381 37.0753ZM61.6409 30.5184L60.3107 26.4121C60.1702 25.9924 59.9052 25.0054 59.5175 23.4493H59.4695C59.313 24.1179 59.064 25.1067 58.7226 26.4121L57.4155 30.5184H61.6392H61.6409ZM79.2381 31.2671C79.2381 33.1948 78.7153 34.7207 77.666 35.8393C76.727 36.8352 75.5604 37.3331 74.1697 37.3331C72.667 37.3331 71.5875 36.7978 70.9313 35.7255V41.6759H68.4113V29.4655C68.4113 28.2545 68.3793 27.0132 68.317 25.7381H70.5329L70.6734 27.536H70.7214C71.5626 26.1827 72.8377 25.5051 74.5485 25.5051C75.8859 25.5051 77.0027 26.0333 77.8972 27.0914C78.79 28.1513 79.2381 29.5438 79.2381 31.2706V31.2671ZM76.6701 31.3595C76.6701 30.2551 76.4212 29.3464 75.9232 28.6279C75.379 27.8828 74.6463 27.5093 73.7287 27.5093C73.1062 27.5093 72.5425 27.7174 72.0374 28.1282C71.5324 28.5426 71.1998 29.0814 71.0451 29.7501C70.9757 30.0008 70.9366 30.2569 70.9277 30.5166V32.4088C70.9277 33.2322 71.1802 33.9275 71.6871 34.4984C72.1921 35.0657 72.8501 35.3502 73.6593 35.3502C74.609 35.3502 75.347 34.9821 75.8752 34.253C76.4052 33.522 76.6701 32.5582 76.6701 31.3595ZM92.2826 31.2671C92.2826 33.1948 91.7598 34.7207 90.7106 35.8393C89.7716 36.8352 88.6049 37.3331 87.2125 37.3331C85.7097 37.3331 84.6302 36.7978 83.974 35.7255V41.6759H81.454V29.4655C81.454 28.2545 81.422 27.0132 81.3598 25.7381H83.5756L83.7161 27.536H83.7641C84.6036 26.1827 85.8787 25.5051 87.5913 25.5051C88.9286 25.5051 90.0454 26.0333 90.9417 27.0914C91.8327 28.1513 92.2826 29.5438 92.2826 31.2706V31.2671ZM89.7147 31.3595C89.7147 30.2551 89.4657 29.3464 88.966 28.6279C88.4218 27.8828 87.6926 27.5093 86.775 27.5093C86.1525 27.5093 85.5888 27.7174 85.0819 28.1282C84.5769 28.5426 84.2461 29.0814 84.0914 29.7501C84.0149 30.0613 83.974 30.3156 83.974 30.5166V32.4088C83.974 33.2322 84.2283 33.9275 84.7316 34.4984C85.2367 35.0639 85.8947 35.3502 86.7056 35.3502C87.6553 35.3502 88.3951 34.9821 88.9215 34.253C89.4515 33.522 89.7164 32.5582 89.7164 31.3595H89.7147ZM106.869 32.6649C106.869 34.004 106.401 35.0924 105.471 35.9318C104.447 36.8494 103.019 37.3082 101.187 37.3082C99.494 37.3082 98.1371 36.9828 97.1146 36.3283L97.6979 34.2281C98.8022 34.8825 100.017 35.2079 101.338 35.2079C102.288 35.2079 103.028 34.9928 103.554 34.566C104.082 34.1374 104.349 33.5665 104.349 32.8534C104.349 32.2149 104.129 31.6796 103.695 31.2422C103.259 30.8064 102.537 30.4028 101.525 30.0293C98.7702 29.0032 97.392 27.5004 97.392 25.5246C97.392 24.2335 97.8793 23.1772 98.8503 22.352C99.8213 21.5268 101.111 21.1143 102.713 21.1143C104.145 21.1143 105.336 21.3632 106.284 21.8612L105.651 23.9152C104.76 23.4333 103.753 23.1914 102.629 23.1914C101.74 23.1914 101.043 23.4102 100.545 23.8441C100.125 24.2335 99.912 24.7066 99.912 25.2686C99.912 25.8892 100.154 26.4049 100.636 26.8086C101.054 27.1803 101.818 27.5858 102.921 28.0215C104.276 28.5675 105.27 29.2023 105.909 29.9333C106.551 30.6642 106.869 31.5747 106.869 32.6613V32.6649ZM115.222 27.6267H112.444V33.1326C112.444 34.5322 112.933 35.2311 113.915 35.2311C114.365 35.2311 114.738 35.1937 115.034 35.1137L115.103 37.0272C114.607 37.2122 113.952 37.3064 113.143 37.3064C112.147 37.3064 111.37 37.0023 110.808 36.3959C110.25 35.7877 109.967 34.7705 109.967 33.3389V27.6231H108.313V25.7327H109.967V23.6573L112.443 22.9104V25.7327H115.22V27.6285L115.222 27.6267ZM127.73 31.3115C127.73 33.0543 127.232 34.4859 126.236 35.6045C125.194 36.7569 123.81 37.3313 122.081 37.3313C120.353 37.3313 119.09 36.78 118.101 35.6774C117.113 34.5731 116.62 33.1806 116.62 31.5018C116.62 29.823 117.13 28.306 118.148 27.1857C119.168 26.0653 120.541 25.5051 122.268 25.5051C123.995 25.5051 125.27 26.0582 126.28 27.1625C127.248 28.2331 127.728 29.6149 127.728 31.3133L127.73 31.3115ZM125.117 31.3702C125.117 30.3316 124.893 29.4407 124.441 28.6955C123.913 27.7956 123.157 27.3457 122.177 27.3457C121.198 27.3457 120.394 27.7956 119.867 28.6955C119.416 29.4407 119.192 30.3476 119.192 31.4182C119.192 32.4888 119.416 33.3513 119.867 34.0947C120.412 34.9945 121.173 35.4445 122.156 35.4445C123.14 35.4445 123.874 34.9857 124.42 34.0716C124.884 33.3086 125.115 32.4106 125.115 31.3702H125.117ZM135.924 27.9521C135.663 27.9041 135.396 27.881 135.13 27.8828C134.244 27.8828 133.557 28.2153 133.075 28.8876C132.658 29.478 132.446 30.2249 132.446 31.1266V37.077H129.926V29.309C129.928 28.1193 129.905 26.9278 129.853 25.7398H132.048L132.14 27.9095H132.209C132.476 27.1643 132.894 26.5632 133.468 26.1115C133.995 25.7185 134.633 25.5051 135.29 25.5033C135.523 25.5033 135.732 25.5193 135.919 25.5495V27.9539H135.921L135.924 27.9521ZM147.194 30.8705C147.201 31.2528 147.169 31.637 147.102 32.014H139.542C139.57 33.1344 139.937 33.9915 140.639 34.5837C141.276 35.1101 142.099 35.3751 143.111 35.3751C144.23 35.3751 145.252 35.1973 146.17 34.8398L146.565 36.588C145.492 37.0557 144.224 37.2887 142.762 37.2887C141.004 37.2887 139.624 36.7711 138.619 35.7379C137.616 34.7047 137.114 33.314 137.114 31.5729C137.114 29.8319 137.582 28.4412 138.516 27.3048C139.494 26.092 140.817 25.4855 142.481 25.4855C144.146 25.4855 145.353 26.092 146.195 27.3048C146.86 28.2651 147.194 29.4567 147.194 30.8705ZM144.792 30.2178C144.809 29.4691 144.644 28.8253 144.302 28.2811C143.867 27.5787 143.195 27.2301 142.295 27.2301C141.471 27.2301 140.799 27.5716 140.289 28.2562C139.869 28.8004 139.62 29.4549 139.543 30.216H144.792V30.2178Z" fill="white"/>
<path d="M56.2448 17.1564C55.5441 17.1564 54.9377 17.1226 54.4326 17.0639V9.46129C55.1386 9.35281 55.8518 9.29768 56.5667 9.30124C59.4566 9.30124 60.7868 10.7222 60.7868 13.0394C60.7868 15.7123 59.2147 17.1564 56.2448 17.1564ZM56.6681 10.2758C56.2786 10.2758 55.946 10.2989 55.6704 10.3558V16.1356C55.8198 16.1587 56.1061 16.1694 56.508 16.1694C58.402 16.1694 59.4797 15.0917 59.4797 13.0732C59.4797 11.2735 58.5051 10.2758 56.6698 10.2758H56.6681ZM64.934 17.215C63.305 17.215 62.2504 15.9986 62.2504 14.3483C62.2504 12.6979 63.3281 11.4015 65.0265 11.4015C66.6324 11.4015 67.7101 12.5592 67.7101 14.2576C67.7101 15.9559 66.5986 17.215 64.934 17.215ZM64.9821 12.3067C64.0875 12.3067 63.5149 13.1425 63.5149 14.3127C63.5149 15.4829 64.1 16.2974 64.9714 16.2974C65.8428 16.2974 66.4279 15.4029 66.4279 14.2896C66.4279 13.1763 65.8552 12.3067 64.9838 12.3067H64.9821ZM76.9987 11.5153L75.2558 17.0888H74.1194L73.3974 14.6684C73.2178 14.0762 73.0684 13.4751 72.9493 12.8687H72.9261C72.8354 13.4769 72.6629 14.0851 72.4798 14.6684L71.7115 17.0888H70.5644L68.923 11.5153H70.1963L70.8276 14.1651C70.977 14.7964 71.1015 15.3922 71.2064 15.9542H71.2295C71.3202 15.4847 71.4696 14.8996 71.6884 14.1776L72.4798 11.5171H73.4899L74.2475 14.1207C74.4307 14.752 74.58 15.3709 74.6956 15.9559H74.7294C74.8095 15.3833 74.9357 14.7751 75.1082 14.1207L75.7858 11.5171H77.0022L76.9987 11.5153ZM83.4169 17.087H82.1773V13.8877C82.1773 12.9025 81.7985 12.4081 81.0534 12.4081C80.3082 12.4081 79.8139 13.0394 79.8139 13.7721V17.087H78.5743V13.107C78.5743 12.6144 78.5619 12.0862 78.5281 11.5135H79.6182L79.6769 12.3743H79.7107C80.0433 11.7785 80.7208 11.3997 81.4784 11.3997C82.6486 11.3997 83.4169 12.2943 83.4169 13.7508V17.087ZM86.8332 17.087H85.5936V8.95801H86.8332V17.087ZM91.3503 17.2133C89.7231 17.2133 88.6667 15.9969 88.6667 14.3465C88.6667 12.6962 89.7444 11.3997 91.4428 11.3997C93.0487 11.3997 94.1264 12.5575 94.1264 14.2558C94.1264 15.9969 93.0149 17.2133 91.3503 17.2133ZM91.3965 12.3049C90.502 12.3049 89.9294 13.1408 89.9294 14.3109C89.9294 15.4811 90.5162 16.2956 91.3841 16.2956C92.2519 16.2956 92.8406 15.4011 92.8406 14.2878C92.8406 13.1532 92.2697 12.3049 91.3965 12.3049ZM99.0098 17.087L98.9191 16.445H98.8853C98.5065 16.9607 97.9552 17.2133 97.2546 17.2133C96.2551 17.2133 95.5473 16.5144 95.5473 15.5736C95.5473 14.1989 96.7406 13.4876 98.8053 13.4876V13.3844C98.8053 12.6499 98.4159 12.2836 97.6476 12.2836C97.0981 12.2836 96.6161 12.4223 96.1911 12.6979L95.9385 11.8834C96.4543 11.5616 97.0963 11.4015 97.8521 11.4015C99.3086 11.4015 100.043 12.1698 100.043 13.7063V15.7585C100.043 16.3205 100.068 16.7562 100.123 17.0888H99.0063L99.0098 17.087ZM98.8391 14.3109C97.4626 14.3109 96.7726 14.6435 96.7726 15.4349C96.7726 16.02 97.1283 16.3063 97.6227 16.3063C98.2522 16.3063 98.8391 15.8261 98.8391 15.1717V14.3109ZM106.061 17.087L106.002 16.1925H105.969C105.613 16.8683 105.015 17.2133 104.18 17.2133C102.835 17.2133 101.841 16.0324 101.841 14.3696C101.841 12.7068 102.873 11.3997 104.281 11.3997C105.026 11.3997 105.554 11.6523 105.853 12.1573H105.878V8.95801H107.118V15.586C107.118 16.1249 107.13 16.63 107.164 17.0888H106.061V17.087ZM105.878 13.8077C105.878 13.0269 105.362 12.3618 104.573 12.3618C103.655 12.3618 103.093 13.1763 103.093 14.3216C103.093 15.4669 103.676 16.2138 104.548 16.2138C105.327 16.2138 105.878 15.5362 105.878 14.7342V13.8059V13.8077ZM114.98 17.2133C113.353 17.2133 112.296 15.9969 112.296 14.3465C112.296 12.6962 113.374 11.3997 115.072 11.3997C116.678 11.3997 117.756 12.5575 117.756 14.2558C117.756 15.9969 116.644 17.2133 114.98 17.2133ZM115.026 12.3049C114.133 12.3049 113.559 13.1408 113.559 14.3109C113.559 15.4811 114.144 16.2956 115.014 16.2956C115.883 16.2956 116.47 15.4011 116.47 14.2878C116.472 13.1532 115.899 12.3049 115.026 12.3049ZM124.418 17.087H123.178V13.8877C123.178 12.9025 122.799 12.4081 122.054 12.4081C121.309 12.4081 120.817 13.0394 120.817 13.7721V17.087H119.577V13.107C119.577 12.6144 119.565 12.0862 119.531 11.5135H120.621L120.68 12.3743H120.713C121.046 11.7785 121.723 11.3997 122.479 11.3997C123.649 11.3997 124.42 12.2943 124.42 13.7508V17.0888L124.418 17.087ZM132.751 12.4436H131.389V15.1503C131.389 15.8386 131.627 16.1836 132.109 16.1836C132.328 16.1836 132.511 16.1605 132.659 16.1249L132.693 17.0657C132.453 17.1581 132.131 17.2044 131.732 17.2044C130.756 17.2044 130.173 16.6655 130.173 15.2553V12.4454H129.36V11.5171H130.173V10.4963L131.389 10.1282V11.5153H132.751V12.4454V12.4436ZM139.308 17.087H138.07V13.9108C138.07 12.9131 137.693 12.4081 136.947 12.4081C136.305 12.4081 135.707 12.8438 135.707 13.7276V17.087H134.469V8.95801H135.707V12.3049H135.732C136.121 11.6967 136.687 11.3979 137.407 11.3979C138.586 11.3979 139.308 12.3156 139.308 13.7721V17.087ZM146.027 14.599H142.31C142.333 15.6536 143.032 16.2494 144.067 16.2494C144.617 16.2494 145.124 16.1569 145.57 15.9862L145.762 16.8469C145.236 17.0763 144.615 17.1901 143.893 17.1901C142.15 17.1901 141.117 16.0893 141.117 14.3821C141.117 12.6748 142.173 11.3891 143.752 11.3891C145.177 11.3891 146.07 12.4436 146.07 14.0389C146.079 14.2274 146.063 14.4159 146.027 14.6008V14.599ZM144.891 13.717C144.891 12.8562 144.457 12.2498 143.665 12.2498C142.954 12.2498 142.392 12.8687 142.31 13.717H144.891Z" fill="white"/>
</g>
<defs>
<clipPath id="clip0_1245_2077">
<rect width="163.064" height="48.3151" fill="white" transform="translate(0.84375)"/>
</clipPath>
</defs>
</svg>
