<svg width="20" height="21" viewBox="0 0 20 21" fill="none" xmlns="http://www.w3.org/2000/svg">
<path d="M20 10.1716C20 15.6945 15.5228 20.1716 10 20.1716C4.47715 20.1716 0 15.6945 0 10.1716C0 4.64878 4.47715 0.171631 10 0.171631C15.5228 0.171631 20 4.64878 20 10.1716Z" fill="#28303F"/>
<path d="M10.5792 15.4251C10.0684 15.4251 9.60648 15.3612 9.19337 15.2335C8.78026 15.1058 8.42723 14.9181 8.1343 14.6702C7.84888 14.4223 7.6273 14.1144 7.46957 13.7463C7.31183 13.3858 7.23297 12.9727 7.23297 12.507C7.23297 11.9061 7.41323 11.3616 7.77377 10.8733C8.14181 10.3851 8.67886 9.97951 9.3849 9.65653V9.6002C8.94174 9.3298 8.60374 9.01058 8.3709 8.64253C8.14557 8.27449 8.0329 7.8764 8.0329 7.44826C8.0329 7.11026 8.08923 6.79104 8.2019 6.4906C8.32208 6.19015 8.48732 5.93102 8.69763 5.7132C8.90794 5.48786 9.15581 5.31135 9.44123 5.18366C9.73417 5.05597 10.0534 4.99213 10.3989 4.99213C10.8721 4.99213 11.2852 5.09728 11.6382 5.3076C11.9913 5.51791 12.2767 5.80333 12.4945 6.16386L11.6608 6.9976C11.4805 6.74973 11.2777 6.56946 11.0524 6.4568C10.8345 6.33662 10.5754 6.27653 10.275 6.27653C9.85435 6.27653 9.53137 6.38169 9.30603 6.592C9.0807 6.80231 8.96803 7.08773 8.96803 7.44826C8.96803 7.88391 9.12577 8.20313 9.44123 8.40593C9.76421 8.60873 10.2036 8.71013 10.7594 8.71013C10.9322 8.71013 11.1162 8.69886 11.3115 8.67633C11.5143 8.6538 11.7284 8.62375 11.9537 8.5862L12.855 8.42846L13.0691 9.58893L11.5819 9.88187C10.4327 10.0997 9.5877 10.3964 9.0469 10.7719C8.51361 11.14 8.24697 11.6169 8.24697 12.2028V12.3943C8.24697 12.9577 8.45352 13.3858 8.86663 13.6787C9.27975 13.9717 9.85059 14.1181 10.5792 14.1181C11.0899 14.1181 11.5744 14.028 12.0326 13.8477C12.4983 13.6675 12.9226 13.3858 13.3057 13.0027L14.0155 14.0055C13.0766 14.9519 11.9312 15.4251 10.5792 15.4251Z" fill="white"/>
</svg>
