<svg width="23" height="27" viewBox="0 0 23 27" fill="none" xmlns="http://www.w3.org/2000/svg">
<g clip-path="url(#clip0_304_2612)">
<path d="M18.0296 16.4389H10.2763L8.45967 6.97343C8.20971 5.45289 6.46886 4.30663 4.4115 4.30663C1.86724 4.30663 -0.0234261 6.01493 0.365934 7.82746L3.03639 21.6382C3.13347 22.1359 3.70792 22.5051 4.38481 22.5051H20.7532C21.506 22.5051 22.115 22.0529 22.115 21.4942V19.472C22.115 17.7995 20.2824 16.4389 18.0296 16.4389ZM11.2206 8.35069C11.2206 10.5811 13.6636 12.3948 16.6678 12.3948C19.672 12.3948 22.115 10.5811 22.115 8.35069V6.32866H11.2206V8.35069ZM16.6678 0.262451C13.6636 0.262451 11.2206 2.07612 11.2206 4.30663H22.115C22.115 2.07612 19.672 0.262451 16.6678 0.262451ZM3.04989 25.5381C3.04989 26.097 3.659 26.5492 4.41165 26.5492H18.0296C18.7822 26.5492 19.3913 26.097 19.3913 25.5381V24.5272H3.04989V25.5381ZM-6.48274 16.4389H-14.2359L-16.0525 6.97343C-16.3024 5.45289 -18.0433 4.30663 -20.1006 4.30663C-22.6449 4.30663 -24.5356 6.01493 -24.1461 7.82746L-21.4756 21.6382C-21.3785 22.1359 -20.8041 22.5051 -20.1272 22.5051H-3.75906C-3.00641 22.5051 -2.3973 22.0529 -2.3973 21.4942V19.472C-2.3973 17.7995 -4.22985 16.4389 -6.48274 16.4389ZM-13.2917 8.35069C-13.2917 10.5811 -10.8487 12.3948 -7.8445 12.3948C-4.84035 12.3948 -2.3973 10.5811 -2.3973 8.35069V6.32866H-13.2917V8.35069ZM-7.8445 0.262451C-10.8487 0.262451 -13.2917 2.07612 -13.2917 4.30663H-2.3973C-2.3973 2.07612 -4.84035 0.262451 -7.8445 0.262451ZM-21.4624 25.5381C-21.4624 26.097 -20.8533 26.5492 -20.1006 26.5492H-6.48274C-5.73009 26.5492 -5.12098 26.097 -5.12098 25.5381V24.5272H-21.4624V25.5381Z" fill="url(#paint0_linear_304_2612)"/>
</g>
<defs>
<linearGradient id="paint0_linear_304_2612" x1="-1.04106" y1="26.5492" x2="-1.04106" y2="0.262451" gradientUnits="userSpaceOnUse">
<stop stop-color="#949A99"/>
<stop offset="1" stop-color="#B5B6B6"/>
</linearGradient>
<clipPath id="clip0_304_2612">
<rect width="21.7759" height="26.2868" fill="white" transform="translate(0.339111 0.262451)"/>
</clipPath>
</defs>
</svg>
