<svg width="40" height="40" viewBox="0 0 40 40" fill="none" xmlns="http://www.w3.org/2000/svg">
<circle cx="20" cy="20" r="20" fill="#07689F" fill-opacity="0.06"/>
<g clip-path="url(#clip0_300_2364)">
<path d="M31.9167 23.9664C31.9167 23.0123 31.143 22.236 30.1923 22.236C29.2415 22.236 28.4678 23.0123 28.4678 23.9664C28.4678 24.621 28.8324 25.1918 29.3681 25.4857C28.8324 25.7795 28.4678 26.3503 28.4678 27.005C28.4678 27.8568 29.0854 28.5651 29.8943 28.7074V30.4021H27.2022V11.3839C27.2022 11.2833 27.152 11.19 27.0686 11.1344C26.9852 11.0787 26.8793 11.0694 26.7877 11.1088L22.5409 12.9203V10.2628C22.5409 10.0977 22.4075 9.96402 22.2432 9.96402H19.4366V7.38589C19.4366 7.22055 19.3031 7.08691 19.1386 7.08691C18.9743 7.08691 18.8408 7.22055 18.8408 7.38589V9.96402H15.9372C15.7726 9.96402 15.6394 10.0977 15.6394 10.2628V16.7082H13.0956C12.9312 16.7082 12.7978 16.8419 12.7978 17.0072V30.4021H10.1055V28.7074C10.9147 28.5651 11.532 27.8568 11.532 27.005C11.532 26.3503 11.1677 25.7795 10.6317 25.4857C11.1677 25.1918 11.532 24.621 11.532 23.9664C11.532 23.0123 10.7585 22.236 9.80778 22.236C8.85702 22.236 8.08331 23.0123 8.08331 23.9664C8.08331 24.621 8.44766 25.1918 8.98362 25.4857C8.44766 25.7795 8.08331 26.3503 8.08331 27.005C8.08331 27.8568 8.70064 28.5651 9.5098 28.7074V30.4021H8.38129C8.21673 30.4021 8.08331 30.5357 8.08331 30.7011C8.08331 30.8662 8.21673 31 8.38129 31H31.6187C31.7833 31 31.9167 30.8662 31.9167 30.7011C31.9167 30.5357 31.7833 30.4021 31.6187 30.4021H30.4902V28.7074C31.2992 28.5651 31.9167 27.8568 31.9167 27.005C31.9167 26.3503 31.5522 25.7795 31.0164 25.4857C31.5522 25.1918 31.9167 24.621 31.9167 23.9664ZM9.80778 22.8339C10.4299 22.8339 10.9363 23.342 10.9363 23.9664C10.9363 24.5909 10.4299 25.0987 9.80778 25.0987C9.18545 25.0987 8.67905 24.5909 8.67905 23.9664C8.67905 23.342 9.18545 22.8339 9.80778 22.8339ZM8.67905 27.005C8.67905 26.3806 9.18545 25.8725 9.80778 25.8725C10.4299 25.8725 10.9363 26.3806 10.9363 27.005C10.9363 27.6292 10.4299 28.1373 9.80778 28.1373C9.18545 28.1373 8.67905 27.6292 8.67905 27.005ZM26.6063 30.4021H24.925V27.3986C24.925 27.2335 24.7916 27.0999 24.627 27.0999H21.1674C21.0028 27.0999 20.8694 27.2335 20.8694 27.3986V30.4021H19.1879V14.9999L26.6063 11.8357V30.4021ZM24.329 30.4021H21.4654V27.6976H24.329V30.4021ZM21.9452 10.5617V12.8409H16.2352V10.5617H21.9452ZM16.2352 13.4389H21.3254L18.7733 14.5274C18.6633 14.5741 18.5919 14.6824 18.5919 14.8024V16.7082H16.2352V13.4389ZM13.3935 17.3059H18.5919V30.4021H13.3935V17.3059ZM30.1923 28.1373C29.5699 28.1373 29.0638 27.6292 29.0638 27.005C29.0638 26.3806 29.5699 25.8725 30.1923 25.8725C30.8146 25.8725 31.3208 26.3806 31.3208 27.005C31.3208 27.6292 30.8146 28.1373 30.1923 28.1373ZM30.1923 25.0987C29.5699 25.0987 29.0638 24.5909 29.0638 23.9664C29.0638 23.342 29.5699 22.8339 30.1923 22.8339C30.8146 22.8339 31.3208 23.342 31.3208 23.9664C31.3208 24.5909 30.8146 25.0987 30.1923 25.0987Z" fill="#07689F" stroke="#07689F" stroke-width="0.3"/>
</g>
<defs>
<clipPath id="clip0_300_2364">
<rect width="26" height="25" fill="white" transform="translate(7 6)"/>
</clipPath>
</defs>
</svg>
