<svg width="36" height="36" viewBox="0 0 36 36" fill="none" xmlns="http://www.w3.org/2000/svg">
<path fill-rule="evenodd" clip-rule="evenodd" d="M18 33C26.2843 33 33 26.2843 33 18C33 9.71573 26.2843 3 18 3C9.71573 3 3 9.71573 3 18C3 26.2843 9.71573 33 18 33ZM23.5607 12.4393C24.1465 13.0251 24.1465 13.9749 23.5607 14.5607L20.1213 18L23.5607 21.4393C24.1465 22.0251 24.1465 22.9749 23.5607 23.5607C22.9749 24.1465 22.0251 24.1465 21.4393 23.5607L18 20.1213L14.5607 23.5607C13.9749 24.1465 13.0251 24.1465 12.4393 23.5607C11.8536 22.9749 11.8536 22.0251 12.4393 21.4393L15.8787 18L12.4393 14.5607C11.8536 13.9749 11.8536 13.0251 12.4393 12.4393C13.0251 11.8536 13.9749 11.8536 14.5607 12.4393L18 15.8787L21.4393 12.4393C22.0251 11.8536 22.9749 11.8536 23.5607 12.4393Z" fill="white"/>
</svg>
