<svg width="20" height="21" viewBox="0 0 20 21" fill="none" xmlns="http://www.w3.org/2000/svg">
<path fill-rule="evenodd" clip-rule="evenodd" d="M20 10.1716C20 15.6945 15.5228 20.1716 10 20.1716C4.47715 20.1716 0 15.6945 0 10.1716C0 4.64878 4.47715 0.171631 10 0.171631C15.5228 0.171631 20 4.64878 20 10.1716ZM10 9.41039C9.31544 9.41039 8.7605 8.85544 8.7605 8.17089C8.7605 7.48734 9.31381 6.93303 9.99697 6.93139L10 6.9314L10.003 6.93139C10.6862 6.93303 11.2395 7.48734 11.2395 8.17089C11.2395 8.5909 11.58 8.93139 12 8.93139C12.42 8.93139 12.7605 8.5909 12.7605 8.17089C12.7605 6.91008 11.9153 5.84669 10.7605 5.51647V4.6709C10.7605 4.25089 10.42 3.9104 10 3.9104C9.57999 3.9104 9.2395 4.25089 9.2395 4.6709V5.51647C8.08475 5.84669 7.2395 6.91008 7.2395 8.17089C7.2395 9.68138 8.45268 10.9085 9.95781 10.9311C9.97178 10.9318 9.98584 10.9322 10 10.9322C10.6846 10.9322 11.2395 11.4872 11.2395 12.1717C11.2395 12.8531 10.6896 13.4061 10.0094 13.4112C10.0063 13.4111 10.0031 13.4111 10 13.4111C9.99687 13.4111 9.99374 13.4111 9.99061 13.4112C9.31038 13.4061 8.7605 12.8531 8.7605 12.1717C8.7605 11.7517 8.42001 11.4112 8 11.4112C7.57999 11.4112 7.2395 11.7517 7.2395 12.1717C7.2395 13.4325 8.08475 14.4959 9.2395 14.8261V15.6716C9.2395 16.0916 9.57999 16.4321 10 16.4321C10.42 16.4321 10.7605 16.0916 10.7605 15.6716V14.8261C11.9153 14.4959 12.7605 13.4325 12.7605 12.1717C12.7605 10.6612 11.5473 9.4341 10.0422 9.41154C10.0282 9.41077 10.0142 9.41039 10 9.41039Z" fill="#28303F"/>
</svg>
