<svg width="28" height="28" viewBox="0 0 28 28" fill="none" xmlns="http://www.w3.org/2000/svg">
<path fill-rule="evenodd" clip-rule="evenodd" d="M13.9999 25.6666C20.4432 25.6666 25.6666 20.4432 25.6666 13.9999C25.6666 7.5566 20.4432 2.33325 13.9999 2.33325C7.5566 2.33325 2.33325 7.5566 2.33325 13.9999C2.33325 20.4432 7.5566 25.6666 13.9999 25.6666ZM18.3249 9.67496C18.7805 10.1306 18.7805 10.8693 18.3249 11.3249L15.6498 13.9999L18.3249 16.675C18.7805 17.1306 18.7805 17.8693 18.3249 18.3249C17.8693 18.7805 17.1306 18.7805 16.675 18.3249L13.9999 15.6498L11.3249 18.3249C10.8693 18.7805 10.1306 18.7805 9.67496 18.3249C9.21935 17.8693 9.21935 17.1306 9.67496 16.675L12.35 13.9999L9.67496 11.3249C9.21935 10.8693 9.21935 10.1306 9.67496 9.67496C10.1306 9.21935 10.8693 9.21935 11.3249 9.67496L13.9999 12.35L16.675 9.67496C17.1306 9.21935 17.8693 9.21935 18.3249 9.67496Z" fill="#E7E9EA"/>
</svg>
