<svg width="22" height="27" viewBox="0 0 22 27" fill="none" xmlns="http://www.w3.org/2000/svg">
<g clip-path="url(#clip0_27_24)">
<path d="M17.6904 16.1765H9.93716L8.12056 6.71097C7.8706 5.19044 6.12975 4.04418 4.07239 4.04418C1.52813 4.04418 -0.362537 5.75248 0.026822 7.56501L2.69728 21.3758C2.79435 21.8734 3.36881 22.2427 4.0457 22.2427H20.4141C21.1669 22.2427 21.7759 21.7905 21.7759 21.2317V19.2096C21.7759 17.537 19.9433 16.1765 17.6904 16.1765ZM-6.82185 16.1765H-14.575L-16.3916 6.71097C-16.6416 5.19044 -18.3824 4.04418 -20.4398 4.04418C-22.984 4.04418 -24.8747 5.75248 -24.4852 7.56501L-21.8147 21.3758C-21.7176 21.8734 -21.1432 22.2427 -20.4663 22.2427H-4.09817C-3.34552 22.2427 -2.73641 21.7905 -2.73641 21.2317V19.2096C-2.73641 17.537 -4.56896 16.1765 -6.82185 16.1765ZM-13.6308 8.08824C-13.6308 10.3186 -11.1878 12.1323 -8.18361 12.1323C-5.17946 12.1323 -2.73641 10.3186 -2.73641 8.08824V6.06621H-13.6308V8.08824ZM-8.18361 0C-11.1878 0 -13.6308 1.81367 -13.6308 4.04418H-2.73641C-2.73641 1.81367 -5.17946 0 -8.18361 0ZM-21.8015 25.2757C-21.8015 25.8345 -21.1924 26.2868 -20.4398 26.2868H-6.82185C-6.0692 26.2868 -5.46009 25.8345 -5.46009 25.2757V24.2647H-21.8015V25.2757Z" fill="url(#paint0_linear_27_24)"/>
</g>
<defs>
<linearGradient id="paint0_linear_27_24" x1="-1.38017" y1="26.2868" x2="-1.38017" y2="0" gradientUnits="userSpaceOnUse">
<stop stop-color="#00C0FF"/>
<stop offset="1" stop-color="#52D4BD"/>
</linearGradient>
<clipPath id="clip0_27_24">
<rect width="21.7759" height="26.2868" fill="white"/>
</clipPath>
</defs>
</svg>
