<svg width="22" height="27" viewBox="0 0 22 27" fill="none" xmlns="http://www.w3.org/2000/svg">
<g clip-path="url(#clip0_27_17)">
<path d="M17.6904 16.4389H9.93716L8.12056 6.97343C7.8706 5.45289 6.12975 4.30663 4.07239 4.30663C1.52813 4.30663 -0.362537 6.01493 0.026822 7.82746L2.69728 21.6382C2.79435 22.1359 3.36881 22.5051 4.0457 22.5051H20.4141C21.1669 22.5051 21.7759 22.0529 21.7759 21.4942V19.472C21.7759 17.7995 19.9433 16.4389 17.6904 16.4389ZM2.71078 25.5381C2.71078 26.097 3.31989 26.5492 4.07254 26.5492H17.6904C18.4431 26.5492 19.0522 26.097 19.0522 25.5381V24.5272H2.71078V25.5381ZM-6.82185 16.4389H-14.575L-16.3916 6.97343C-16.6416 5.45289 -18.3824 4.30663 -20.4398 4.30663C-22.984 4.30663 -24.8747 6.01493 -24.4852 7.82746L-21.8147 21.6382C-21.7176 22.1359 -21.1432 22.5051 -20.4663 22.5051H-4.09817C-3.34552 22.5051 -2.73641 22.0529 -2.73641 21.4942V19.472C-2.73641 17.7995 -4.56896 16.4389 -6.82185 16.4389ZM-13.6308 8.35069C-13.6308 10.5811 -11.1878 12.3948 -8.18361 12.3948C-5.17946 12.3948 -2.73641 10.5811 -2.73641 8.35069V6.32866H-13.6308V8.35069ZM-8.18361 0.262451C-11.1878 0.262451 -13.6308 2.07612 -13.6308 4.30663H-2.73641C-2.73641 2.07612 -5.17946 0.262451 -8.18361 0.262451ZM-21.8015 25.5381C-21.8015 26.097 -21.1924 26.5492 -20.4398 26.5492H-6.82185C-6.0692 26.5492 -5.46009 26.097 -5.46009 25.5381V24.5272H-21.8015V25.5381Z" fill="url(#paint0_linear_27_17)"/>
</g>
<defs>
<linearGradient id="paint0_linear_27_17" x1="-1.38017" y1="26.5492" x2="-1.38017" y2="0.262451" gradientUnits="userSpaceOnUse">
<stop stop-color="#00C0FF"/>
<stop offset="1" stop-color="#9CF9E8"/>
</linearGradient>
<clipPath id="clip0_27_17">
<rect width="21.7759" height="26.2868" fill="white" transform="translate(0 0.262451)"/>
</clipPath>
</defs>
</svg>
