<svg width="25" height="25" viewBox="0 0 25 25" fill="none" xmlns="http://www.w3.org/2000/svg">
<path d="M21.037 16.0922C20.3353 15.3904 19.1934 15.3904 18.4916 16.0922L16.6499 17.9339C16.3937 17.2518 15.7349 16.7649 14.9643 16.7649H13.0171C12.7409 16.7649 12.6188 16.6136 12.3389 16.3674C11.4663 15.5995 10.302 15.2253 9.14467 15.3413C8.07079 15.4488 7.10464 15.951 6.3934 16.7649H4.08437C3.75301 16.7649 3.48438 17.0336 3.48438 17.3649V22.1649C3.48438 22.4962 3.75301 22.7649 4.08437 22.7649C4.58885 22.7649 15.6584 22.7649 16.1643 22.7649C16.645 22.7649 17.097 22.5776 17.437 22.2376L21.037 18.6376C21.7387 17.9358 21.7387 16.794 21.037 16.0922ZM5.96436 21.5649H4.68437V17.9649H5.96436V21.5649ZM20.1885 17.7891L16.5885 21.3891C16.4768 21.5008 16.3222 21.5649 16.1643 21.5649C15.9673 21.5649 7.35724 21.5649 7.16436 21.5649V17.7171C7.6844 17.0386 8.42943 16.6188 9.26419 16.5353C10.091 16.4526 10.9229 16.7197 11.5462 17.2682C11.8503 17.5358 12.2525 17.9649 13.0171 17.9649H14.9643C15.2952 17.9649 15.5643 18.2341 15.5643 18.5649C15.5643 18.8957 15.2952 19.1649 14.9643 19.1649H12.5132C11.9373 19.1649 11.3921 19.4435 11.0547 19.91C10.8605 20.1785 10.9207 20.5536 11.1892 20.7478C11.4577 20.942 11.8328 20.8818 12.027 20.6133C12.1395 20.4577 12.3213 20.3649 12.5132 20.3649C13.1548 20.3649 15.0152 20.3649 15.6674 20.3649C15.8266 20.3649 15.9792 20.3017 16.0917 20.1891L19.3401 16.9407C19.574 16.7068 19.9545 16.7068 20.1885 16.9407C20.4224 17.1746 20.4224 17.5552 20.1885 17.7891Z" fill="#8DA3AF"/>
<path d="M22.1651 13.1624H21.545C21.2729 8.98068 18.1645 5.56978 14.2005 4.8331C14.3059 4.60446 14.3651 4.3503 14.3651 4.08246C14.3651 3.08995 13.5576 2.28247 12.5651 2.28247C11.5726 2.28247 10.7651 3.08995 10.7651 4.08246C10.7651 4.34998 10.8242 4.60386 10.9294 4.8323C6.96617 5.56394 3.78379 8.9656 3.50559 13.1624H2.88515C2.5538 13.1624 2.28516 13.4311 2.28516 13.7624C2.28516 14.0938 2.5538 14.3624 2.88515 14.3624H22.1651C22.4964 14.3624 22.7651 14.0938 22.7651 13.7624C22.7651 13.4311 22.4964 13.1624 22.1651 13.1624ZM12.5651 3.48247C12.8959 3.48247 13.1651 3.75162 13.1651 4.08246C13.1651 4.4133 12.8959 4.68246 12.5651 4.68246C12.2343 4.68246 11.9651 4.4133 11.9651 4.08246C11.9651 3.75162 12.2343 3.48247 12.5651 3.48247ZM4.70899 13.1624C5.02726 9.15848 8.49529 5.87445 12.5651 5.87445C16.6663 5.87445 20.0382 9.0966 20.3426 13.1624H4.70899Z" fill="#8DA3AF"/>
</svg>
