<svg width="164" height="49" viewBox="0 0 164 49" fill="none" xmlns="http://www.w3.org/2000/svg">
<g clip-path="url(#clip0_1245_2064)">
<path d="M161.982 43.2962C161.982 45.8517 159.911 47.9235 157.353 47.9235H5.71502C3.15592 47.9253 1.07875 45.8553 1.0752 43.2962V6.39294C1.07875 3.83385 3.15414 1.76025 5.71502 1.76025H157.348C159.907 1.76025 161.981 3.83385 161.981 6.39294V43.2962H161.982Z" fill="white"/>
<path d="M157.351 48.9992H5.71576C2.56267 48.9992 0.00711358 46.4472 0 43.2959V6.39447C0.00533518 3.2414 2.56089 0.68586 5.71576 0.684082H157.349C160.502 0.687639 163.057 3.2414 163.064 6.39447V43.2959C163.066 46.4419 160.498 48.9992 157.351 48.9992Z" fill="#A6A5A5"/>
<path d="M161.982 43.2962C161.982 45.8517 159.911 47.9235 157.353 47.9235H5.71502C3.15592 47.9253 1.07875 45.8553 1.0752 43.2962V6.39294C1.07875 3.83385 3.15414 1.76025 5.71502 1.76025H157.348C159.907 1.76025 161.981 3.83385 161.981 6.39294V43.2962H161.982Z" fill="#010101"/>
<path opacity="0.1" d="M157.351 0.684082H76.1299L107.942 48.9992H157.349C160.502 48.9974 163.058 46.4437 163.065 43.2924V6.39447C163.06 3.2414 160.504 0.687639 157.349 0.684082H157.351Z" fill="white"/>
<path d="M57.6191 15.2918C57.6191 16.2361 57.3826 17.063 56.7922 17.6535C56.0844 18.3613 55.2574 18.7169 54.1939 18.7169C53.1305 18.7169 52.3035 18.363 51.5957 17.6535C50.8879 16.9457 50.5322 16.1187 50.5322 15.0552C50.5322 13.9918 50.8861 13.1648 51.5957 12.457C52.3035 11.7492 53.1305 11.3936 54.1939 11.3936C54.667 11.3936 55.1383 11.5109 55.6113 11.7475C56.0844 11.984 56.4383 12.2205 56.6748 12.5744L56.0844 13.1648C55.6113 12.5744 55.0209 12.3379 54.1939 12.3379C53.4861 12.3379 52.7766 12.5744 52.3035 13.1648C51.7131 13.6379 51.4766 14.3457 51.4766 15.1726C51.4766 15.9996 51.7131 16.7074 52.3035 17.1804C52.8939 17.6535 53.4844 18.0074 54.1939 18.0074C55.0209 18.0074 55.6113 17.7708 56.2017 17.1804C56.5556 16.8265 56.7922 16.3535 56.7922 15.763H54.1939V14.8187H57.6191V15.2918ZM63.0521 12.3397H59.8635V14.584H62.8156V15.4109H59.8635V17.6552H63.0521V18.5996H58.9191V11.5127H63.0521V12.3397ZM66.9504 18.5996H66.006V12.3397H63.9982V11.5127H68.9582V12.3397H66.9504V18.5996ZM72.3834 18.5996V11.5127H73.3277V18.5996H72.3834ZM77.3433 18.5996H76.399V12.3397H74.3912V11.5127H79.2337V12.3397H77.2259V18.5996H77.3433ZM88.5632 17.6552C87.8554 18.363 87.0284 18.7187 85.965 18.7187C84.9015 18.7187 84.0745 18.3648 83.3667 17.6552C82.6589 16.9474 82.3032 16.1205 82.3032 15.057C82.3032 13.9936 82.6571 13.1666 83.3667 12.4588C84.0745 11.751 84.9015 11.3953 85.965 11.3953C87.0284 11.3953 87.8554 11.7492 88.5632 12.4588C89.271 13.1666 89.6267 13.9936 89.6267 15.057C89.6267 16.1205 89.2728 16.9474 88.5632 17.6552ZM84.0745 17.0648C84.5476 17.5379 85.2554 17.8918 85.965 17.8918C86.6745 17.8918 87.3823 17.6552 87.8554 17.0648C88.3284 16.5918 88.6823 15.884 88.6823 15.057C88.6823 14.2301 88.4458 13.5223 87.8554 13.0492C87.3823 12.5762 86.6745 12.2223 85.965 12.2223C85.2554 12.2223 84.5476 12.4588 84.0745 13.0492C83.6015 13.5223 83.2476 14.2301 83.2476 15.057C83.2476 15.884 83.4841 16.5918 84.0745 17.0648ZM90.9249 18.5996V11.5127H91.9884L95.4136 17.063V11.5127H96.3579V18.5996H95.4136L91.7518 12.8127V18.5996H90.9249Z" fill="white"/>
<path d="M82.0655 27.4557C79.2307 27.4557 76.9864 29.5809 76.9864 32.5348C76.9864 35.4887 79.2307 37.6139 82.0655 37.6139C84.9002 37.6139 87.1446 35.4887 87.1446 32.5348C87.1446 29.5809 84.9002 27.4557 82.0655 27.4557ZM82.0655 35.4869C80.5307 35.4869 79.2307 34.1869 79.2307 32.4157C79.2307 30.6444 80.5307 29.3444 82.0655 29.3444C83.6002 29.3444 84.9002 30.5252 84.9002 32.4157C84.9002 34.1869 83.6002 35.4869 82.0655 35.4869ZM71.0821 27.4557C68.2474 27.4557 66.003 29.5809 66.003 32.5348C66.003 35.4887 68.2474 37.6139 71.0821 37.6139C73.9169 37.6139 76.1612 35.4887 76.1612 32.5348C76.1612 29.5809 73.9169 27.4557 71.0821 27.4557ZM71.0821 35.4869C69.5474 35.4869 68.2474 34.1869 68.2474 32.4157C68.2474 30.6444 69.5474 29.3444 71.0821 29.3444C72.6169 29.3444 73.9169 30.5252 73.9169 32.4157C73.9169 34.1869 72.6169 35.4869 71.0821 35.4869ZM57.9736 28.9905V31.1157H63.0527C62.9353 32.2965 62.4623 33.2408 61.8718 33.8313C61.164 34.5391 59.9814 35.366 57.9736 35.366C54.7849 35.366 52.4232 32.8852 52.4232 29.6965C52.4232 26.5079 54.9041 24.027 57.9736 24.027C59.6275 24.027 60.9257 24.7348 61.8718 25.5618L63.4066 24.027C62.1066 22.8462 60.4544 21.9019 58.0927 21.9019C53.8406 21.9019 50.1807 25.4444 50.1807 29.6965C50.1807 33.9486 53.8424 37.4912 58.0927 37.4912C60.4544 37.4912 62.1083 36.7834 63.5257 35.2468C64.9431 33.8295 65.4162 31.8217 65.4162 30.2869C65.4162 29.8139 65.4162 29.3426 65.2988 28.9869H57.9771L57.9736 28.9905ZM111.592 30.6444C111.119 29.4635 109.938 27.4557 107.34 27.4557C104.742 27.4557 102.617 29.4635 102.617 32.5348C102.617 35.3696 104.742 37.6139 107.577 37.6139C109.821 37.6139 111.238 36.1965 111.71 35.3696L110.056 34.1887C109.465 35.0157 108.756 35.6061 107.575 35.6061C106.394 35.6061 105.684 35.133 105.094 34.0713L111.825 31.2366L111.589 30.6462L111.592 30.6444ZM104.742 32.2983C104.742 30.4079 106.277 29.3462 107.34 29.3462C108.167 29.3462 108.994 29.8192 109.23 30.4096L104.742 32.3001V32.2983ZM99.1914 37.1408H101.436V22.3767H99.1914V37.139V37.1408ZM95.6489 28.5192C95.0584 27.9288 94.1141 27.3384 92.9333 27.3384C90.4524 27.3384 88.0907 29.5827 88.0907 32.4174C88.0907 35.2522 90.335 37.3774 92.9333 37.3774C94.1141 37.3774 95.0584 36.7869 95.5315 36.1965H95.6489V36.9043C95.6489 38.7947 94.5854 39.8564 92.9333 39.8564C91.6333 39.8564 90.6889 38.9121 90.4524 38.0851L88.562 38.9121C89.1524 40.2121 90.5698 41.8642 93.0506 41.8642C95.5315 41.8642 97.774 40.3295 97.774 36.6678V27.6923H95.6489V28.5192ZM93.0506 35.4869C91.5159 35.4869 90.2159 34.1869 90.2159 32.4157C90.2159 30.6444 91.5159 29.3444 93.0506 29.3444C94.5854 29.3444 95.7662 30.6444 95.7662 32.4157C95.7662 34.1869 94.5854 35.4869 93.0506 35.4869ZM121.868 22.3785H116.554V37.1408H118.798V31.5905H121.87C124.35 31.5905 126.712 29.8192 126.712 26.9845C126.712 24.1497 124.35 22.3785 121.87 22.3785H121.868ZM121.985 29.4653H118.796V24.3863H121.985C123.639 24.3863 124.583 25.8036 124.583 26.8671C124.466 28.1671 123.52 29.4653 121.985 29.4653ZM135.567 27.3402C133.913 27.3402 132.261 28.0479 131.668 29.5845L133.676 30.4114C134.149 29.5845 134.857 29.3479 135.684 29.3479C136.865 29.3479 137.928 30.0557 138.046 31.2384V31.3557C137.692 31.1192 136.746 30.7653 135.801 30.7653C133.676 30.7653 131.549 31.9462 131.549 34.0713C131.549 36.0791 133.321 37.3774 135.211 37.3774C136.746 37.3774 137.455 36.6696 138.046 35.96H138.163V37.1408H140.288V31.4713C140.052 28.8731 138.044 27.3384 135.565 27.3384L135.567 27.3402ZM135.33 35.4887C134.622 35.4887 133.559 35.1348 133.559 34.1887C133.559 33.0079 134.859 32.654 135.921 32.654C136.865 32.654 137.338 32.8905 137.928 33.127C137.692 34.5444 136.511 35.4887 135.33 35.4887ZM147.731 27.6941L145.25 34.0713H145.133L142.534 27.6941H140.173L144.071 36.6696L141.827 41.6295H144.071L150.094 27.6941H147.733H147.731ZM127.889 37.1426H130.134V22.3767H127.889V37.139V37.1426Z" fill="white"/>
<path d="M17.5492 10.4883C17.1953 10.8422 17.0762 11.4326 17.0762 12.1422V38.2417C17.0762 38.9495 17.3127 39.5417 17.6666 39.8956L17.784 40.013L32.429 25.368V25.1315L17.5492 10.4883Z" fill="url(#paint0_linear_1245_2064)"/>
<path d="M37.1531 30.33L32.3105 25.4875V25.1336L37.1531 20.291L37.2705 20.4084L43.0574 23.7144C44.7113 24.6587 44.7113 26.1952 43.0574 27.1396L37.1531 30.3282V30.33Z" fill="url(#paint1_linear_1245_2064)"/>
<path d="M37.2732 30.2114L32.3132 25.2515L17.5508 40.0138C18.1412 40.6042 18.9682 40.6043 20.0316 40.1312L37.275 30.2114" fill="url(#paint2_linear_1245_2064)"/>
<path d="M37.273 20.2925L20.0297 10.49C18.9662 9.89962 18.1393 10.017 17.5488 10.6074L32.3113 25.2524L37.2712 20.2925H37.273Z" fill="url(#paint3_linear_1245_2064)"/>
</g>
<defs>
<linearGradient id="paint0_linear_1245_2064" x1="24.7535" y1="10.4029" x2="24.7535" y2="39.7943" gradientUnits="userSpaceOnUse">
<stop stop-color="#267CAF"/>
<stop offset="0.29" stop-color="#4A92B4"/>
<stop offset="0.77" stop-color="#79BCBA"/>
<stop offset="1" stop-color="#88CEBC"/>
</linearGradient>
<linearGradient id="paint1_linear_1245_2064" x1="39.9541" y1="21.7031" x2="36.3689" y2="29.8107" gradientUnits="userSpaceOnUse">
<stop stop-color="#F48879"/>
<stop offset="0.12" stop-color="#F5907A"/>
<stop offset="0.71" stop-color="#FBB777"/>
<stop offset="1" stop-color="#FDC874"/>
</linearGradient>
<linearGradient id="paint2_linear_1245_2064" x1="34.6234" y1="27.8692" x2="18.4952" y2="40.912" gradientUnits="userSpaceOnUse">
<stop stop-color="#EB413D"/>
<stop offset="0.17" stop-color="#D94452"/>
<stop offset="0.57" stop-color="#AF487A"/>
<stop offset="0.86" stop-color="#954B92"/>
<stop offset="1" stop-color="#894A9C"/>
</linearGradient>
<linearGradient id="paint3_linear_1245_2064" x1="19.6402" y1="11.2014" x2="35.0659" y2="22.9833" gradientUnits="userSpaceOnUse">
<stop stop-color="#54C0AC"/>
<stop offset="1" stop-color="#DDE79A"/>
</linearGradient>
<clipPath id="clip0_1245_2064">
<rect y="0.68457" width="163.064" height="48.3151" rx="2.45" fill="white"/>
</clipPath>
</defs>
</svg>
