<svg width="63" height="47" viewBox="0 0 63 47" fill="none" xmlns="http://www.w3.org/2000/svg">
<circle cx="42.1418" cy="21.4545" r="20.8586" fill="white" fill-opacity="0.13"/>
<g filter="url(#filter0_d_1469_5306)">
<path d="M47.7147 18.7907L24.3522 29.7419C20.0609 31.7534 15.0851 31.6905 10.8461 29.571L7.32243 27.8092C6.75141 27.5236 6.75141 26.7088 7.32243 26.4233L8.69213 25.7384C10.6384 24.7653 12.9042 24.6555 14.9355 25.4359L16.7283 26.1247C16.8244 26.1616 16.9312 26.1588 17.0252 26.1168L37.1711 17.1163C39.4964 16.0775 42.1372 15.9964 44.5218 16.8906L47.6863 18.0773C48.0074 18.1977 48.0252 18.6452 47.7147 18.7907Z" stroke="#F9C22D" stroke-width="1.93687"/>
<path d="M19.5157 16.1233L30.874 19.8529L22.8844 23.4845L10.2901 17.6538C10.0863 17.5595 10.0711 17.2755 10.2637 17.1599C13.051 15.4875 16.4274 15.1092 19.5157 16.1233Z" stroke="#F9C22D" stroke-width="1.93687"/>
</g>
<defs>
<filter id="filter0_d_1469_5306" x="-1.81061" y="0" width="58.1056" height="58.1061" filterUnits="userSpaceOnUse" color-interpolation-filters="sRGB">
<feFlood flood-opacity="0" result="BackgroundImageFix"/>
<feColorMatrix in="SourceAlpha" type="matrix" values="0 0 0 0 0 0 0 0 0 0 0 0 0 0 0 0 0 0 127 0" result="hardAlpha"/>
<feOffset dy="5.81061"/>
<feGaussianBlur stdDeviation="2.9053"/>
<feComposite in2="hardAlpha" operator="out"/>
<feColorMatrix type="matrix" values="0 0 0 0 0 0 0 0 0 0 0 0 0 0 0 0 0 0 0.25 0"/>
<feBlend mode="normal" in2="BackgroundImageFix" result="effect1_dropShadow_1469_5306"/>
<feBlend mode="normal" in="SourceGraphic" in2="effect1_dropShadow_1469_5306" result="shape"/>
</filter>
</defs>
</svg>
