<svg width="59" height="47" viewBox="0 0 59 47" fill="none" xmlns="http://www.w3.org/2000/svg">
<circle cx="38.1418" cy="21.4545" r="20.8586" fill="white" fill-opacity="0.13"/>
<g clip-path="url(#clip0_1469_5322)">
<path d="M33.9944 32.6991C31.2705 29.9755 27.5762 28.4454 23.7242 28.4454C19.8723 28.4454 16.178 29.9755 13.4541 32.6991" stroke="#F9C22D" stroke-width="1.94263" stroke-linecap="round" stroke-linejoin="round"/>
<path d="M34.8602 7.62707C32.1914 6.08623 29.0197 5.66867 26.043 6.46625C23.0663 7.26382 20.5283 9.21119 18.9873 11.88L39.1131 23.5C40.654 20.8311 41.0715 17.6595 40.274 14.6828C39.4764 11.706 37.529 9.16803 34.8602 7.62707Z" stroke="#F9C22D" stroke-width="1.94263" stroke-linecap="round" stroke-linejoin="round"/>
<path d="M32.4049 19.6267C35.6159 14.0685 36.714 8.69615 34.8606 7.62711C33.0072 6.55807 28.9053 10.1951 25.6963 15.7534" stroke="#F9C22D" stroke-width="1.94263" stroke-linecap="round" stroke-linejoin="round"/>
<path d="M29.0502 17.6899L23.2402 27.7529" stroke="#F9C22D" stroke-width="1.94263" stroke-linecap="round" stroke-linejoin="round"/>
<path d="M5.81055 37.5409C6.41342 37.2411 7.07421 37.0759 7.74721 37.0567C8.50154 37.0409 9.24837 37.2089 9.92321 37.5464C10.598 37.8838 11.1806 38.3804 11.6205 38.9934C12.0605 39.6063 12.6431 40.1029 13.3179 40.4403C13.9927 40.7778 14.7396 40.9458 15.4939 40.93C16.2482 40.9458 16.995 40.7778 17.6699 40.4403C18.3447 40.1029 18.9273 39.6063 19.3672 38.9934C19.8072 38.3804 20.3897 37.8838 21.0646 37.5464C21.7394 37.2089 22.4862 37.0409 23.2405 37.0567C23.9949 37.0409 24.7417 37.2089 25.4165 37.5464C26.0914 37.8838 26.6739 38.3804 27.1139 38.9934C27.5538 39.6063 28.1364 40.1029 28.8112 40.4403C29.4861 40.7778 30.2329 40.9458 30.9872 40.93C31.7415 40.9458 32.4884 40.7778 33.1632 40.4403C33.838 40.1029 34.4206 39.6063 34.8605 38.9934C35.3005 38.3804 35.8831 37.8838 36.5579 37.5464C37.2327 37.2089 37.9796 37.0409 38.7339 37.0567C39.4069 37.0759 40.0677 37.2411 40.6705 37.5409" stroke="#F9C22D" stroke-width="1.94263" stroke-linecap="round" stroke-linejoin="round"/>
</g>
<defs>
<clipPath id="clip0_1469_5322">
<rect width="46.48" height="46.48" fill="white" transform="translate(0 0.26001)"/>
</clipPath>
</defs>
</svg>
