<svg width="16" height="22" viewBox="0 0 16 22" fill="none" xmlns="http://www.w3.org/2000/svg">
<path d="M11.5758 16.3217C10.3821 17.5336 9.17831 18.7355 7.97197 19.935C7.72496 20.1966 7.46736 20.4557 7.18859 20.6878C7.0303 20.8183 6.85739 20.9274 6.67439 21.0108H0C1.16651 19.8434 9.00791 12.0371 10.1749 10.8728C10.4789 11.1789 10.9392 11.6406 11.4901 12.2008C12.5084 13.2347 12.7232 15.1473 11.5758 16.3217Z" fill="url(#paint0_linear_1254_2373)"/>
<path d="M15.7086 11.692C15.6028 11.9931 15.444 12.2741 15.2393 12.5163C14.038 13.8023 12.812 15.0682 11.5764 16.3216C12.7228 15.1466 12.508 13.234 11.4897 12.2001C10.9382 11.6399 10.4785 11.1782 10.1745 10.8721C10.1745 10.8721 10.1745 10.8721 10.1745 10.8696C9.00498 9.7122 1.41059 2.10096 0.246094 0.936035H6.67398C6.75565 0.980575 6.83731 1.03452 6.91394 1.09161C7.08432 1.22021 7.2527 1.35571 7.40847 1.50375C9.95724 4.06321 12.5156 6.6151 15.074 9.16201C15.3386 9.42112 15.5433 9.7373 15.6824 10.0804C15.8896 10.5936 15.8941 11.1713 15.7086 11.692Z" fill="#52D4BD"/>
<defs>
<linearGradient id="paint0_linear_1254_2373" x1="6.33967" y1="8.95426" x2="-1.01226" y2="19.3675" gradientUnits="userSpaceOnUse">
<stop stop-color="#267567"/>
<stop offset="0.0703653" stop-color="#329281"/>
<stop offset="0.1482" stop-color="#48B8A4"/>
<stop offset="0.250633" stop-color="#4DCCB5"/>
<stop offset="0.34412" stop-color="#52D4BD"/>
<stop offset="0.534338" stop-color="#52D4BD"/>
<stop offset="1" stop-color="#52D4BD"/>
</linearGradient>
</defs>
</svg>
