<svg width="40" height="40" viewBox="0 0 40 40" fill="none" xmlns="http://www.w3.org/2000/svg">
<path d="M19.9997 3.3335C10.7997 3.3335 3.33301 10.8002 3.33301 20.0002C3.33301 29.2002 10.7997 36.6668 19.9997 36.6668C29.1997 36.6668 36.6663 29.2002 36.6663 20.0002C36.6663 10.8002 29.1997 3.3335 19.9997 3.3335ZM19.3497 24.7335C19.3497 26.5502 17.933 27.9668 16.1163 27.9668H13.6497C11.8663 27.9668 10.4163 26.5168 10.4163 24.7335V20.2835C10.4163 15.1502 11.533 14.0002 14.5163 12.2335C14.7163 12.1168 14.933 12.0668 15.1497 12.0668C15.583 12.0668 15.9997 12.2835 16.233 12.6835C16.583 13.2835 16.383 14.0502 15.7997 14.4002C13.783 15.5668 13.083 16.0002 12.9497 19.0168H16.133C17.9497 19.0168 19.3663 20.4335 19.3663 22.2502V24.7335H19.3497ZM29.583 24.7335C29.583 26.5502 28.1663 27.9668 26.3497 27.9668H23.8663C22.083 27.9668 20.633 26.5168 20.633 24.7335V20.2835C20.633 15.1502 21.7497 14.0002 24.733 12.2335C24.933 12.1168 25.1497 12.0668 25.3663 12.0668C25.7997 12.0668 26.2163 12.2835 26.4497 12.6835C26.7997 13.2835 26.5997 14.0502 26.0163 14.4002C23.9997 15.6002 23.2997 16.0335 23.1663 19.0502H26.3497C28.1663 19.0502 29.583 20.4668 29.583 22.2835V24.7335Z" fill="#0AB1B4"/>
</svg>
