<svg width="25" height="25" viewBox="0 0 25 25" fill="none" xmlns="http://www.w3.org/2000/svg">
<path d="M2.76953 20.3224C2.99107 20.6311 3.28442 20.8812 3.62425 21.0511C3.96407 21.221 4.34014 21.3056 4.71999 21.2977C5.09984 21.3056 5.47591 21.221 5.81573 21.0511C6.15556 20.8812 6.44891 20.6311 6.67045 20.3224C6.89199 20.0138 7.18534 19.7637 7.52516 19.5938C7.86499 19.4239 8.24106 19.3392 8.62091 19.3472C9.00076 19.3392 9.37683 19.4239 9.71665 19.5938C10.0565 19.7637 10.3498 20.0138 10.5714 20.3224C10.7929 20.6311 11.0863 20.8812 11.4261 21.0511C11.7659 21.221 12.142 21.3056 12.5218 21.2977C12.9017 21.3056 13.2778 21.221 13.6176 21.0511C13.9574 20.8812 14.2507 20.6311 14.4723 20.3224C14.6938 20.0138 14.9872 19.7637 15.327 19.5938C15.6668 19.4239 16.0429 19.3392 16.4227 19.3472C16.8026 19.3392 17.1787 19.4239 17.5185 19.5938C17.8583 19.7637 18.1517 20.0138 18.3732 20.3224C18.5947 20.6311 18.8881 20.8812 19.2279 21.0511C19.5677 21.221 19.9438 21.3056 20.3237 21.2977C20.7035 21.3056 21.0796 21.221 21.4194 21.0511C21.7592 20.8812 22.0526 20.6311 22.2741 20.3224" stroke="#8DA3AF" stroke-width="1.46284" stroke-linecap="round" stroke-linejoin="round"/>
<path d="M4.72132 18.3732L3.74609 13.4971H21.3002L19.3498 17.398" stroke="#8DA3AF" stroke-width="1.46284" stroke-linecap="round" stroke-linejoin="round"/>
<path d="M5.69727 13.4976V7.64624H13.4991L17.4 13.4976" stroke="#8DA3AF" stroke-width="1.46284" stroke-linecap="round" stroke-linejoin="round"/>
<path d="M7.6471 7.64603V3.74512H6.67188" stroke="#8DA3AF" stroke-width="1.46284" stroke-linecap="round" stroke-linejoin="round"/>
</svg>
