<svg width="13" height="13" viewBox="0 0 13 13" fill="none" xmlns="http://www.w3.org/2000/svg">
<path d="M7.53475 1.3573L8.63543 3.3374C8.78624 3.60919 9.16473 3.86739 9.47599 3.90229L11.3287 4.13397C12.515 4.27975 12.8209 5.11725 12.0136 5.99448L10.6382 7.4806C10.4086 7.72964 10.2894 8.20476 10.3816 8.53086L10.8635 10.2805C11.2426 11.6618 10.5217 12.2344 9.25497 11.5559L7.48535 10.6079C7.16306 10.4346 6.65112 10.4598 6.34834 10.6544L4.66373 11.7391C3.45779 12.5144 2.69041 12.004 2.95503 10.5976L3.29388 8.81769C3.35714 8.48497 3.20547 8.02068 2.95512 7.79227L1.45304 6.42181C0.576417 5.61572 0.812221 4.75657 1.98036 4.51299L3.80432 4.13398C4.11214 4.06746 4.46887 3.78676 4.59411 3.50115L5.52858 1.4343C6.03936 0.320726 6.9405 0.285638 7.53475 1.3573Z" fill="#FFBD39"/>
</svg>
