<svg width="25" height="25" viewBox="0 0 25 25" fill="none" xmlns="http://www.w3.org/2000/svg">
<path d="M16.4244 10.5708C16.9631 10.5708 17.3997 10.1342 17.3997 9.59559C17.3997 9.05699 16.9631 8.62036 16.4244 8.62036C15.8858 8.62036 15.4492 9.05699 15.4492 9.59559C15.4492 10.1342 15.8858 10.5708 16.4244 10.5708Z" stroke="#8DA3AF" stroke-width="1.46284" stroke-linecap="round" stroke-linejoin="round"/>
<path d="M6.66992 11.5474L10.5708 9.59692L13.9841 12.5226L12.5213 14.4731" stroke="#8DA3AF" stroke-width="1.46284" stroke-linecap="round" stroke-linejoin="round"/>
<path d="M3.74609 17.1547C4.04968 17.3056 4.38243 17.3888 4.72132 17.3985C5.10117 17.4064 5.47725 17.3218 5.81707 17.1519C6.15689 16.982 6.45024 16.7319 6.67178 16.4233C6.89333 16.1146 7.18668 15.8645 7.5265 15.6946C7.86632 15.5247 8.24239 15.4401 8.62224 15.448C9.00209 15.4401 9.37816 15.5247 9.71799 15.6946C10.0578 15.8645 10.3512 16.1146 10.5727 16.4233C10.7942 16.7319 11.0876 16.982 11.4274 17.1519C11.7672 17.3218 12.1433 17.4064 12.5232 17.3985C12.903 17.4064 13.2791 17.3218 13.6189 17.1519C13.9587 16.982 14.2521 16.7319 14.4736 16.4233C14.6952 16.1146 14.9885 15.8645 15.3283 15.6946C15.6682 15.5247 16.0442 15.4401 16.4241 15.448C16.8039 15.4401 17.18 15.5247 17.5198 15.6946C17.8596 15.8645 18.153 16.1146 18.3745 16.4233C18.5961 16.7319 18.8894 16.982 19.2293 17.1519C19.5691 17.3218 19.9451 17.4064 20.325 17.3985C20.6639 17.3888 20.9966 17.3056 21.3002 17.1547" stroke="#8DA3AF" stroke-width="1.46284" stroke-linecap="round" stroke-linejoin="round"/>
</svg>
