<svg width="170" height="240" viewBox="0 0 170 240" fill="none" xmlns="http://www.w3.org/2000/svg">
<g clip-path="url(#clip0_1469_5769)">
<path d="M148.218 29.2371L6.9082 110.711L10.3146 116.702L71.233 122.844L83.8747 115.549L144.793 39.1591L148.218 29.2371Z" fill="#FF7200"/>
<path d="M21.6699 116.513V138.285L47.4642 124.432L41.3515 101.281L21.6699 116.513Z" fill="#93BBE1"/>
<path d="M68.7161 11.9065L81.3577 4.61145L148.218 29.237L6.9082 110.711L68.7161 11.9065Z" fill="#E06800"/>
<g style="mix-blend-mode:multiply">
<path d="M82.8329 238.772C84.2144 238.772 85.4823 238.469 86.4854 237.883L151.51 200.388C152.911 199.575 153.725 198.29 153.725 196.834C153.725 195.266 152.778 193.811 151.113 192.866L146.931 190.447C145.682 189.728 144.13 189.332 142.54 189.332C141.159 189.332 139.891 189.634 138.888 190.22L73.8626 227.716C72.4622 228.528 71.6484 229.813 71.6484 231.269C71.6484 232.837 72.5947 234.293 74.26 235.238L78.4424 237.657C79.6914 238.375 81.2432 238.772 82.8329 238.772Z" fill="#C4D3ED"/>
</g>
<g style="mix-blend-mode:multiply">
<path d="M11.1655 240C12.547 240 13.815 239.698 14.818 239.112L79.843 201.616C81.2435 200.803 82.0572 199.518 82.0572 198.063C82.0572 196.494 81.111 195.039 79.4456 194.094L75.2633 191.675C74.0143 190.957 72.4624 190.56 70.8728 190.56C69.4913 190.56 68.2233 190.862 67.2203 191.448L2.21418 228.944C0.794835 229.757 0 231.042 0 232.497C0 234.066 0.946232 235.521 2.6116 236.466L6.79394 238.885C8.04297 239.603 9.59479 240 11.1845 240H11.1655Z" fill="#C4D3ED"/>
</g>
<path d="M144.793 39.1591L83.8747 115.549L71.233 122.844L10.3146 116.702L6.9082 110.711V205.566L148.218 124.092V29.2371L144.793 39.1591Z" fill="#FFA100"/>
<path d="M71.233 122.844L83.8747 115.549L148.218 124.092L6.9082 205.566L71.233 122.844Z" fill="#FFAE00"/>
<path d="M89.3809 212.577L166.328 168.202L166.953 167.843C168.77 166.671 170.019 164.668 170.019 162.211L159.951 168.032L92.4656 206.946C92.4656 209.402 91.1976 211.406 89.3809 212.577Z" fill="#93BBE1"/>
<path d="M53.3672 135.96L74.6385 123.676L74.6763 58.266C74.6763 57.8125 74.6385 57.3589 74.5817 56.9053V56.8675C74.3546 54.3728 73.4841 52.0482 72.0269 50.0449C71.5727 49.3646 71.0239 48.722 70.3994 48.1361C69.5478 47.2856 68.6204 46.5864 67.5796 45.9627L66.8605 45.6414C64.8544 44.4697 62.5835 44.4697 60.7478 45.3579L59.6123 46.0005C57.928 47.1723 56.7925 49.1 56.7925 51.4435V129.629C56.7925 132.407 55.3732 134.675 53.3672 135.96Z" fill="#93BBE1"/>
<path d="M21.668 112.091V116.513L35.1802 108.727C34.3664 107.952 33.4959 107.309 32.4929 106.723L31.7548 106.27C29.5785 105.041 27.194 105.136 25.2826 106.138L25.0555 106.27C23.0873 107.404 21.6869 109.502 21.6869 112.091H21.668Z" fill="#93BBE1"/>
<path d="M60.748 45.358C62.6027 44.4886 64.8547 44.4886 66.8607 45.6414L67.5798 45.9627C68.6207 46.5675 69.548 47.2857 70.3996 48.1361C71.0241 48.722 71.5729 49.3646 72.0271 50.0449C73.4843 52.0482 74.3549 54.3728 74.582 56.8675V56.9053C74.6387 57.3589 74.6766 57.8125 74.6766 58.2661L74.6387 123.676L74.5063 200.047C74.4684 205.093 77.1936 209.78 81.5651 212.313L82.3789 212.804C84.5742 214.07 87.0344 213.938 88.9836 212.842L89.381 212.615C91.1978 211.443 92.4657 209.44 92.4657 206.983L159.951 168.07L159.137 167.579C154.766 165.046 152.078 160.359 152.078 155.313L152.249 13.5318C152.249 8.44796 149.561 3.79878 145.152 1.2663L144.433 0.907212C142.162 -0.415727 139.607 -0.226736 137.658 0.963909L137.431 1.0962L60.748 45.358Z" fill="#EBF2F9"/>
<path d="M25.2631 106.138C27.1745 105.136 29.5779 105.041 31.7353 106.27L32.4734 106.723C33.4764 107.309 34.3469 107.952 35.1606 108.727C37.9426 111.354 39.5701 115.039 39.5701 118.951V125.963C39.5701 130.102 41.7464 133.976 45.3421 136.112C46.6101 136.849 47.9348 137.17 49.2217 137.17C50.5842 137.17 51.909 136.811 53.0444 136.131V136.093C53.1391 136.055 53.2715 135.998 53.3661 135.923C55.3722 134.637 56.7915 132.37 56.7915 129.591V87.9377L25.2441 106.119L25.2631 106.138Z" fill="#CEE0F2"/>
<path d="M96.0977 79.3197L133.909 57.529C134.988 56.9053 135.858 55.2422 135.858 53.8247C135.858 52.3884 134.988 51.7269 133.909 52.3506L96.0977 74.1413C95.019 74.765 94.1484 76.4281 94.1484 77.8455C94.1484 79.2818 95.019 79.9244 96.0977 79.3197Z" fill="#CFD8DB"/>
<path d="M88.3203 110.182L141.688 79.4141C142.767 78.7904 143.637 77.1273 143.637 75.7099C143.637 74.2735 142.767 73.6121 141.688 74.2357L88.3203 105.004C87.2416 105.627 86.3711 107.29 86.3711 108.708C86.3711 110.144 87.2416 110.806 88.3203 110.182Z" fill="#CFD8DB"/>
<path d="M88.3203 134.6L141.688 103.832C142.767 103.208 143.637 101.545 143.637 100.128C143.637 98.6912 142.767 98.0298 141.688 98.6535L88.3203 129.421C87.2416 130.045 86.3711 131.708 86.3711 133.125C86.3711 134.562 87.2416 135.223 88.3203 134.6Z" fill="#CFD8DB"/>
<path d="M88.3203 122.391L130.541 98.0487C131.62 97.4251 132.49 95.7619 132.49 94.3445C132.49 92.9082 131.62 92.2467 130.541 92.8704L88.3203 117.212C87.2416 117.836 86.3711 119.499 86.3711 120.917C86.3711 122.353 87.2416 123.014 88.3203 122.391Z" fill="#CFD8DB"/>
<path d="M88.3203 146.789L104.633 137.378C105.712 136.754 106.583 135.091 106.583 133.673C106.583 132.237 105.712 131.576 104.633 132.199L88.3203 141.611C87.2416 142.235 86.3711 143.898 86.3711 145.315C86.3711 146.752 87.2416 147.413 88.3203 146.789Z" fill="#CFD8DB"/>
<path d="M137.98 139.948C137.526 143.917 136.068 148.32 133.608 152.573C131.148 156.825 128.082 160.302 124.903 162.665L120.531 170.243L115.952 167.597C109.915 164.082 109.915 152.724 115.952 142.235C121.989 131.746 131.773 126.114 137.809 129.629L142.389 132.275L137.98 139.948Z" fill="#00A658"/>
<path d="M120.532 144.881C114.495 155.37 114.495 166.728 120.532 170.243C126.569 173.759 136.353 168.127 142.39 157.638C148.427 147.149 148.427 135.79 142.39 132.275C136.353 128.76 126.569 134.392 120.532 144.881Z" fill="#00D158"/>
<path d="M127.437 161.909L128.97 162.797C128.97 162.797 128.838 162.703 128.781 162.665L127.248 161.776C127.248 161.776 127.381 161.871 127.437 161.909Z" fill="#C6C0D0"/>
<path d="M142.408 141.46L140.875 140.572C140.345 140.269 139.645 140.364 138.964 140.761C138.32 141.139 137.677 141.762 137.166 142.594L138.699 143.482C139.21 142.651 139.853 142.027 140.497 141.649C141.197 141.252 141.897 141.158 142.408 141.46Z" fill="#D3E1FC"/>
<path d="M138.68 143.482L137.147 142.575L129.918 154.255L131.451 155.143L138.68 143.482Z" fill="#D3E1FC"/>
<path d="M124.411 159.112L122.859 158.224L127.25 161.777L128.783 162.665L124.411 159.112Z" fill="#D3E1FC"/>
<path d="M128.385 152.667L126.852 151.779C126.322 151.476 125.622 151.571 124.922 151.968L126.455 152.856C127.155 152.459 127.855 152.365 128.385 152.667Z" fill="#D3E1FC"/>
<path d="M126.473 152.856L124.94 151.968C124.335 152.308 123.729 152.894 123.237 153.65C122.083 155.408 121.931 157.449 122.877 158.224L124.41 159.112C123.464 158.337 123.615 156.296 124.77 154.538C125.262 153.782 125.867 153.196 126.473 152.856Z" fill="#D3E1FC"/>
<path d="M126.473 152.856C125.868 153.196 125.262 153.782 124.77 154.538C123.616 156.296 123.464 158.337 124.411 159.112L128.782 162.665C129.407 163.175 130.334 163.099 131.242 162.57C131.999 162.136 132.756 161.399 133.362 160.416L142.313 145.996C143.411 144.219 143.506 142.197 142.503 141.517C141.973 141.139 141.235 141.214 140.497 141.649C139.853 142.027 139.21 142.651 138.699 143.482L131.469 155.143L128.574 152.781C128.044 152.346 127.268 152.403 126.492 152.856H126.473Z" fill="white"/>
<path d="M53.0449 136.112V136.149L53.3666 135.96C53.272 136.017 53.1395 136.093 53.0449 136.13V136.112Z" fill="#EBF2F9"/>
</g>
<defs>
<clipPath id="clip0_1469_5769">
<rect width="170" height="240" fill="white"/>
</clipPath>
</defs>
</svg>
