<svg width="41" height="41" viewBox="0 0 41 41" fill="none" xmlns="http://www.w3.org/2000/svg">
<circle cx="20.5" cy="20.5" r="20.5" transform="rotate(90 20.5 20.5)" fill="#F1F3F6"/>
<path d="M26 18.9999C26 18.7347 25.8946 18.4804 25.7071 18.2928C25.5196 18.1053 25.2652 17.9999 25 17.9999H13.41L15.71 15.7099C15.8983 15.5216 16.0041 15.2662 16.0041 14.9999C16.0041 14.7336 15.8983 14.4782 15.71 14.2899C15.5217 14.1016 15.2663 13.9958 15 13.9958C14.7337 13.9958 14.4783 14.1016 14.29 14.2899L10.29 18.2899C10.1512 18.4306 10.0572 18.6091 10.0199 18.8031C9.98248 18.9971 10.0034 19.1978 10.08 19.3799C10.155 19.5626 10.2824 19.7189 10.4461 19.8292C10.6098 19.9396 10.8026 19.999 11 19.9999H25C25.2652 19.9999 25.5196 19.8946 25.7071 19.707C25.8946 19.5195 26 19.2652 26 18.9999ZM29.92 22.6199C29.845 22.4373 29.7176 22.281 29.5538 22.1707C29.3901 22.0603 29.1974 22.0009 29 21.9999H15C14.7348 21.9999 14.4804 22.1053 14.2929 22.2928C14.1053 22.4804 14 22.7347 14 22.9999C14 23.2652 14.1053 23.5195 14.2929 23.707C14.4804 23.8946 14.7348 23.9999 15 23.9999H26.59L24.29 26.2899C24.1963 26.3829 24.1219 26.4935 24.0711 26.6154C24.0203 26.7372 23.9942 26.8679 23.9942 26.9999C23.9942 27.132 24.0203 27.2627 24.0711 27.3845C24.1219 27.5064 24.1963 27.617 24.29 27.7099C24.383 27.8037 24.4936 27.8781 24.6154 27.9288C24.7373 27.9796 24.868 28.0057 25 28.0057C25.132 28.0057 25.2627 27.9796 25.3846 27.9288C25.5064 27.8781 25.617 27.8037 25.71 27.7099L29.71 23.7099C29.8487 23.5693 29.9427 23.3907 29.9801 23.1968C30.0175 23.0028 29.9966 22.8021 29.92 22.6199Z" fill="#21455F"/>
</svg>
