<svg width="32" height="32" viewBox="0 0 32 32" fill="none" xmlns="http://www.w3.org/2000/svg">
<g clip-path="url(#clip0_1245_1859)">
<path d="M23.404 22.3333C21.5287 20.4582 18.9853 19.4048 16.3334 19.4048C13.6814 19.4048 11.138 20.4582 9.2627 22.3333" stroke="#33577B" stroke-width="1.33744" stroke-linecap="round" stroke-linejoin="round"/>
<path d="M24.0003 5.07202C22.1628 4.01121 19.9793 3.72373 17.9299 4.27283C15.8805 4.82193 14.1332 6.16264 13.0723 8.00002L26.9283 16C27.9891 14.1626 28.2766 11.979 27.7275 9.92963C27.1784 7.88025 25.8376 6.13292 24.0003 5.07202Z" stroke="#33577B" stroke-width="1.33744" stroke-linecap="round" stroke-linejoin="round"/>
<path d="M22.3091 13.3333C24.5198 9.50662 25.2758 5.80796 23.9998 5.07196C22.7238 4.33596 19.8998 6.83996 17.6904 10.6666" stroke="#33577B" stroke-width="1.33744" stroke-linecap="round" stroke-linejoin="round"/>
<path d="M20 12L16 18.928" stroke="#33577B" stroke-width="1.33744" stroke-linecap="round" stroke-linejoin="round"/>
<path d="M4 25.6666C4.41506 25.4602 4.86999 25.3465 5.33333 25.3332C5.85266 25.3223 6.36683 25.4381 6.83143 25.6704C7.29604 25.9027 7.69711 26.2446 8 26.6666C8.30289 27.0885 8.70396 27.4305 9.16857 27.6628C9.63317 27.8951 10.1473 28.0108 10.6667 27.9999C11.186 28.0108 11.7002 27.8951 12.1648 27.6628C12.6294 27.4305 13.0304 27.0885 13.3333 26.6666C13.6362 26.2446 14.0373 25.9027 14.5019 25.6704C14.9665 25.4381 15.4807 25.3223 16 25.3332C16.5193 25.3223 17.0335 25.4381 17.4981 25.6704C17.9627 25.9027 18.3638 26.2446 18.6667 26.6666C18.9696 27.0885 19.3706 27.4305 19.8352 27.6628C20.2998 27.8951 20.814 28.0108 21.3333 27.9999C21.8527 28.0108 22.3668 27.8951 22.8314 27.6628C23.296 27.4305 23.6971 27.0885 24 26.6666C24.3029 26.2446 24.704 25.9027 25.1686 25.6704C25.6332 25.4381 26.1473 25.3223 26.6667 25.3332C27.13 25.3465 27.5849 25.4602 28 25.6666" stroke="#33577B" stroke-width="1.33744" stroke-linecap="round" stroke-linejoin="round"/>
</g>
<defs>
<clipPath id="clip0_1245_1859">
<rect width="32" height="32" fill="white"/>
</clipPath>
</defs>
</svg>
