<svg width="51" height="32" viewBox="0 0 51 32" fill="none" xmlns="http://www.w3.org/2000/svg">
<g clip-path="url(#clip0_1245_2135)">
<path d="M24.6496 0C23.8347 0.745095 23.1117 1.56327 22.5431 2.50651C22.4555 2.6519 22.3713 2.79963 22.2851 2.9454C22.2821 2.95048 22.2747 2.95302 22.2421 2.97588C21.5537 2.70837 20.9433 2.29449 20.3467 1.80343C20.4189 1.74481 20.4757 1.694 20.5367 1.64867C21.5137 0.921744 22.6041 0.431072 23.7999 0.163557C24.0131 0.115682 24.2301 0.0840264 24.4449 0.0420134C24.4747 0.0363466 24.5015 0.0150463 24.5297 0.000976807L24.6496 0Z" fill="white"/>
<path d="M35.1081 10.3911H51.0006C50.9922 10.4245 50.992 10.457 50.977 10.4804C50.6611 10.9736 50.3037 11.4334 49.8423 11.808C49.4607 12.1179 49.0349 12.277 48.5243 12.2747C44.8869 12.2647 41.2494 12.2692 37.612 12.27C37.4988 12.2682 37.3857 12.2739 37.2733 12.287C37.2012 12.2962 37.1318 12.3203 37.0697 12.3575C36.9211 12.4501 36.9081 12.6172 37.0339 12.7397C37.1329 12.8365 37.2603 12.8738 37.3956 12.8853C37.4684 12.8914 37.5422 12.8875 37.6156 12.8875H48.4815C48.4706 12.9242 48.4572 12.9603 48.4415 12.9953C48.1533 13.5155 47.7949 13.982 47.3173 14.3503C47.1638 14.4644 47.0003 14.5648 46.8285 14.6504C46.6073 14.7653 46.3651 14.8019 46.1139 14.8009C45.2939 14.7974 44.4751 14.7997 43.6556 14.7997C41.184 14.7997 38.7124 14.8001 36.2407 14.8009C36.1345 14.798 36.0283 14.8082 35.9247 14.8312C35.842 14.8538 35.7656 14.8947 35.7015 14.9506C35.6015 15.0376 35.5987 15.1779 35.7025 15.2593C35.786 15.3219 35.8821 15.3663 35.9845 15.3897C36.0861 15.4135 36.1963 15.4055 36.3027 15.4055C39.4472 15.4055 42.5916 15.4055 45.7361 15.4055H46.0325C46.0125 15.4665 46.0093 15.505 45.9905 15.5349C45.6621 16.0552 45.2615 16.5119 44.7447 16.8636C44.2895 17.1734 43.7906 17.3303 43.2288 17.3289C40.4443 17.3221 37.6596 17.3221 34.8747 17.3289C34.7491 17.3303 34.6242 17.3475 34.5031 17.3803C34.4043 17.4061 34.3247 17.4749 34.3185 17.5876C34.3161 17.6339 34.3285 17.6798 34.354 17.7189C34.3794 17.758 34.4166 17.7885 34.4605 17.8061C34.5754 17.8543 34.6948 17.8913 34.8171 17.9165C34.8803 17.9312 34.9497 17.9196 35.0171 17.9196H43.5014C43.4904 17.9622 43.489 17.9884 43.4774 18.0093C43.0974 18.6968 42.5702 19.2416 41.8478 19.5935C41.4644 19.7803 41.056 19.8475 40.6296 19.8475C38.7776 19.8444 36.9255 19.844 35.0735 19.8462C34.1209 19.8462 33.1679 19.8315 32.2157 19.8493C30.56 19.8804 29.1294 18.7267 28.5842 17.563C28.5396 17.4694 28.5048 17.3717 28.458 17.2574C28.546 17.2183 28.622 17.1833 28.6992 17.1505C29.8216 16.6751 30.8858 16.1016 31.8517 15.3637C33.0415 14.4539 33.9879 13.3549 34.5931 11.9917C34.8187 11.4833 34.9837 10.9558 35.1081 10.3911Z" fill="white"/>
<path d="M7.48692 17.9181H7.74152C10.513 17.9181 13.2845 17.9185 16.0558 17.9193C16.2119 17.9193 16.3625 17.9069 16.4993 17.8296C16.6009 17.7719 16.6867 17.6981 16.6705 17.5675C16.6553 17.4458 16.5615 17.3887 16.4551 17.3645C16.3454 17.3394 16.2332 17.3268 16.1207 17.3268C13.3552 17.3252 10.591 17.318 7.82632 17.3319C7.12151 17.3352 6.5251 17.1114 5.99489 16.6798C5.60209 16.3601 5.28308 15.9788 5.01668 15.554C5.00278 15.5319 4.99022 15.509 4.97908 15.4854C4.97384 15.4679 4.97023 15.4499 4.96828 15.4317C5.00909 15.421 5.05058 15.413 5.09248 15.4077C5.15888 15.4036 5.22569 15.4063 5.29249 15.4063C8.43707 15.4063 11.5816 15.4063 14.7262 15.4063C14.846 15.4095 14.9658 15.4016 15.084 15.3828C15.26 15.3498 15.3798 15.2289 15.3814 15.1093C15.383 14.9897 15.2718 14.8697 15.0888 14.8306C14.9782 14.8087 14.8655 14.7987 14.7526 14.8009C11.5148 14.7994 8.27693 14.7931 5.03908 14.806C4.48367 14.8083 4.02526 14.6333 3.61626 14.2921C3.18565 13.9327 2.84884 13.4995 2.57964 13.0149C2.56044 12.9734 2.54361 12.9308 2.52924 12.8875H2.78304C6.3339 12.8875 9.88482 12.887 13.4358 12.8861C13.5484 12.8854 13.6607 12.8735 13.7708 12.8507C13.8354 12.8352 13.8956 12.8057 13.947 12.7644C14.1168 12.6329 14.099 12.4337 13.907 12.3366C13.8411 12.3061 13.7701 12.2875 13.6974 12.2817C13.5914 12.2721 13.4849 12.2681 13.3784 12.2698C9.75416 12.2698 6.1299 12.2639 2.50564 12.2754C1.96563 12.277 1.51822 12.1095 1.11902 11.776C0.67361 11.4047 0.322807 10.9562 0.0172024 10.472C0.00948785 10.4563 0.00371192 10.4397 0 10.4226C0.00254861 10.4147 0.00596932 10.4072 0.0102004 10.4001C0.0141833 10.3952 0.0198869 10.3919 0.0262016 10.3909C5.26882 10.387 10.5115 10.3835 15.7543 10.3804C15.7943 10.3804 15.8327 10.388 15.8835 10.3933C15.9049 10.4765 15.9267 10.5568 15.9461 10.6379C16.3569 12.355 17.2767 13.7707 18.6171 14.9369C19.7027 15.8811 20.9461 16.577 22.2709 17.145L22.5292 17.2537C22.4904 17.3514 22.4598 17.4409 22.4188 17.5273C21.9863 18.4308 21.2891 19.0767 20.3773 19.5075C19.902 19.7325 19.3803 19.8482 18.8521 19.8456C16.0007 19.8448 13.1493 19.8448 10.298 19.8456C9.79537 19.8478 9.30263 19.7094 8.87794 19.4468C8.30473 19.0984 7.86953 18.6235 7.54252 18.0506C7.52432 18.0175 7.51332 17.981 7.48692 17.9181Z" fill="white"/>
<path d="M23.2719 31.9972H20.1567L19.9645 30.8052C19.8915 30.8011 19.8269 30.7944 19.7625 30.7944C18.77 30.7944 17.7778 30.797 16.7856 30.7907C16.6432 30.7907 16.573 30.8333 16.5204 30.9625C16.3804 31.3062 16.224 31.6439 16.0696 31.9948H12.7188C14.4294 28.6117 16.1349 25.2384 17.8352 21.875H21.1713C21.8703 25.2442 22.5689 28.61 23.2719 31.9972ZM19.6261 28.6899C19.4433 27.4604 19.2646 26.2586 19.0848 25.057C19.0824 25.0416 19.062 25.0287 19.0314 24.9929C18.8498 25.4129 18.6746 25.817 18.5002 26.2215C18.3222 26.635 18.143 27.0477 17.9682 27.4625C17.7978 27.8668 17.61 28.2637 17.4506 28.6899H19.6261Z" fill="white"/>
<path d="M36.4423 32.0002H33.1055C33.1371 31.9274 33.1595 31.8681 33.1879 31.8119C34.8324 28.5522 36.4763 25.2924 38.1193 22.0326C38.1737 21.9248 38.2243 21.8607 38.3673 21.8618C39.3674 21.8691 40.3658 21.8655 41.365 21.8661C41.4168 21.8661 41.4686 21.8732 41.5366 21.8781C42.2366 25.2499 42.9366 28.6229 43.6366 31.9971H40.5006C40.448 31.6063 40.3948 31.21 40.3406 30.8051H36.9727C36.7991 31.1966 36.6223 31.595 36.4423 32.0002ZM39.4448 25.0122L39.3884 25.0105C38.8634 26.2277 38.3373 27.4443 37.8097 28.6869H39.9898C39.8068 27.4505 39.6258 26.2314 39.4448 25.0122Z" fill="white"/>
<path d="M30.8913 24.3594C30.5077 26.9221 30.1287 29.4539 29.7481 31.9957H26.4367C26.5485 31.1447 26.6901 30.3021 26.8167 29.4578C26.9433 28.6134 27.0757 27.7743 27.2037 26.9323C27.3327 26.0852 27.4595 25.2379 27.5919 24.3603C27.3237 24.3586 27.0801 24.3564 26.8365 24.3556C26.5965 24.3556 26.3565 24.3556 26.1165 24.3556H24.6318C24.7864 23.5021 24.9588 22.6724 25.1252 21.8335H34.2122C34.0562 22.6831 33.8858 23.513 33.716 24.3595L30.8913 24.3594Z" fill="white"/>
<path d="M10.6079 31.9972H7.23047C7.92468 28.6154 8.61589 25.248 9.3083 21.875H12.6666C12.5134 22.7246 12.3266 23.559 12.1612 24.397C11.9929 25.2454 11.8163 26.0923 11.6431 26.9398C11.4713 27.7811 11.2993 28.6222 11.1271 29.4631C10.9549 30.303 10.7827 31.1438 10.6079 31.9972Z" fill="white"/>
<path d="M19.8839 13.3283C18.4187 11.851 17.6399 10.1052 17.5039 8.06104H21.035C21.1162 9.43515 21.4278 10.7557 21.9984 12.0359C21.2338 12.3763 20.5386 12.7911 19.8839 13.3283Z" fill="white"/>
<path d="M29.0332 12.0189C29.3064 11.3848 29.5352 10.7417 29.6932 10.0763C29.8504 9.41659 29.9262 8.74614 29.9654 8.06104H33.4755C33.4535 8.85909 33.2935 9.62314 33.0213 10.3657C32.6113 11.4842 31.9734 12.463 31.1158 13.3105C30.7758 13.076 30.4532 12.8363 30.1126 12.625C29.772 12.4138 29.4116 12.2295 29.0332 12.0189Z" fill="white"/>
<path d="M21.9836 3.50113C21.0874 5.94902 21.238 5.90466 21.0236 7.4267C20.8774 7.46246 17.8165 7.47458 17.5127 7.43725C17.5419 6.71014 17.6837 6.00256 17.9189 5.31257C18.3205 4.13386 18.9725 3.10542 19.8861 2.20752C20.5187 2.73404 21.225 3.16964 21.9836 3.50113Z" fill="white"/>
<path d="M29.0254 3.50884C29.7822 3.15398 30.4684 2.73522 31.1026 2.20996C31.7868 2.87963 32.334 3.62453 32.7406 4.46733C33.1871 5.39195 33.4381 6.39505 33.4787 7.41664C33.3307 7.4649 30.226 7.47721 29.9652 7.42973C29.9266 6.76162 29.8452 6.09235 29.6864 5.43421C29.5286 4.78233 29.3054 4.15096 29.0254 3.50884Z" fill="white"/>
<path d="M25.1978 8.07391V11.2657C24.7469 11.3253 24.2977 11.3646 23.8577 11.4482C23.4227 11.5311 22.9977 11.6591 22.5633 11.7681C22.1275 11.1655 21.5899 8.879 21.7001 8.08036C21.8451 8.04265 24.9534 8.03424 25.1978 8.07391Z" fill="white"/>
<path d="M25.8271 8.05957H29.2862C29.4592 8.66827 28.9002 11.0884 28.4214 11.7854C27.5867 11.4951 26.7123 11.3284 25.8271 11.2911V8.05957Z" fill="white"/>
<path d="M21.6826 7.43074C21.7084 6.13225 22.0092 4.90684 22.5534 3.71387C23.4116 4.00972 24.2835 4.19262 25.1935 4.23092V7.41746C25.0611 7.46338 22.0104 7.48018 21.6826 7.43074Z" fill="white"/>
<path d="M29.3207 7.44568H25.8291V4.25797C26.2723 4.19485 26.7149 4.1503 27.1491 4.06452C27.5781 3.97971 27.9983 3.85328 28.4513 3.73779C28.9865 4.89657 29.3095 6.12159 29.3207 7.44568Z" fill="white"/>
<path d="M26.3975 0.0292969C27.9925 0.245419 29.3961 0.81367 30.6553 1.79677C30.0781 2.29233 29.4567 2.68823 28.7379 2.9876C28.6295 2.8086 28.5259 2.63156 28.4161 2.45843C28.3041 2.28256 28.1899 2.10669 28.0691 1.93512C27.9483 1.76355 27.8213 1.59706 27.6901 1.43331C27.5631 1.27483 27.4301 1.12066 27.2947 0.968825C27.1547 0.812497 27.0071 0.662227 26.8617 0.510394C26.7163 0.358561 26.5719 0.21005 26.3975 0.0292969Z" fill="white"/>
<path d="M28.7282 12.5547C29.441 12.8462 30.0654 13.2316 30.657 13.7232C29.397 14.7024 27.9817 15.267 26.4033 15.4745C27.3337 14.6293 28.1128 13.6736 28.7282 12.5547Z" fill="white"/>
<path d="M24.5767 15.4715C23.0125 15.2624 21.5991 14.7113 20.3398 13.7229C20.9479 13.2672 21.5413 12.8274 22.2679 12.5532C22.8749 13.6567 23.6509 14.616 24.5767 15.4715Z" fill="white"/>
<path d="M25.1953 0.361816V3.64586C24.3801 3.64391 23.618 3.44772 22.8486 3.19232C23.4305 2.10579 24.2283 1.14352 25.1953 0.361816Z" fill="white"/>
<path d="M25.1937 15.1596C24.2195 14.3804 23.421 13.4124 22.8486 12.3168C23.6166 12.0555 24.3833 11.9064 25.1937 11.9123V15.1596Z" fill="white"/>
<path d="M28.1308 3.19933C27.3926 3.46763 26.6368 3.63802 25.8486 3.64877C25.8032 3.48228 25.786 0.98593 25.8226 0.409668C26.3086 0.571467 27.846 2.42277 28.1308 3.19933Z" fill="white"/>
<path d="M25.8252 15.1442V11.9139C26.6222 11.9049 27.3718 12.0814 28.1136 12.3047C27.999 12.8847 26.433 14.8253 25.8252 15.1442Z" fill="white"/>
</g>
<defs>
<clipPath id="clip0_1245_2135">
<rect width="51" height="32" fill="white"/>
</clipPath>
</defs>
</svg>
